<svg xmlns="http://www.w3.org/2000/svg" viewBox="0 0 104.08 104.76"><defs><style>.cls-1{fill:#61c4f2;}.cls-2{fill:#f86464;}.cls-3{fill:#263357;}</style></defs><g id="Слой_2" data-name="Слой 2"><g id="icons"><path class="cls-1" d="M65,45.76l8,11.76c2,2.24,4.49-1.42,5-2.76,6.29-16.48,13.56-34.28,23-52C86.65,12.47,76,22,65,45.76Z"/><path class="cls-1" d="M39,88.76H9.5a7,7,0,1,0,0,14H39Z"/><path class="cls-2" d="M10,88.21a16,16,0,0,0-8,4v-76c.66-5.13,4.5-7,8-8Z"/><path class="cls-3" d="M1.5,96.76A1.5,1.5,0,0,1,0,95.26V17.47A11.72,11.72,0,0,1,11.71,5.76H73.5A1.5,1.5,0,0,1,75,7.26v4a1.5,1.5,0,1,1-3,0V8.76H11.71A8.72,8.72,0,0,0,3,17.47V95.26A1.5,1.5,0,0,1,1.5,96.76Z"/><path class="cls-3" d="M37.5,104.76H9A9,9,0,0,1,.07,94.64a9.15,9.15,0,0,1,9.21-7.88H37.5a1.5,1.5,0,0,1,0,3H9.28A6.14,6.14,0,0,0,3.05,95a5.93,5.93,0,0,0,1.46,4.74,6,6,0,0,0,4.49,2H37.5a1.5,1.5,0,0,1,0,3Z"/><path class="cls-3" d="M52.5,42.76h-26a1.5,1.5,0,1,1,0-3h26a1.5,1.5,0,0,1,0,3Z"/><path class="cls-3" d="M52.5,52.76h-5a1.5,1.5,0,0,1,0-3h5a1.5,1.5,0,0,1,0,3Z"/><path class="cls-3" d="M40.5,52.76h-14a1.5,1.5,0,1,1,0-3h14a1.5,1.5,0,0,1,0,3Z"/><path class="cls-2" d="M45,86.76V97.44a6.32,6.32,0,0,0,6.32,6.32H86.68A6.32,6.32,0,0,0,93,97.44V86.76Z"/><path class="cls-3" d="M86.18,104.76H50.82A7.83,7.83,0,0,1,43,96.94V83.16a4.4,4.4,0,0,1,4.4-4.4H59.5a1.5,1.5,0,0,1,0,3H47.4a1.4,1.4,0,0,0-1.4,1.4V96.94a4.82,4.82,0,0,0,4.82,4.82H86.18A4.82,4.82,0,0,0,91,96.94V83.16a1.4,1.4,0,0,0-1.4-1.4H68.5a1.5,1.5,0,0,1,0-3H89.6a4.4,4.4,0,0,1,4.4,4.4V96.94A7.83,7.83,0,0,1,86.18,104.76Z"/><path class="cls-3" d="M82.5,80.76a1.5,1.5,0,0,1-1.5-1.5v-7a1.5,1.5,0,1,1,3,0v7A1.5,1.5,0,0,1,82.5,80.76Z"/><path class="cls-3" d="M54.5,80.76a1.5,1.5,0,0,1-1.5-1.5v-7a1.5,1.5,0,0,1,3,0v7A1.5,1.5,0,0,1,54.5,80.76Z"/><path class="cls-3" d="M84,72.76H53a4,4,0,0,1-4-4v-3a4,4,0,0,1,4-4H84a4,4,0,0,1,4,4v3A4,4,0,0,1,84,72.76Zm-31-8a1,1,0,0,0-1,1v3a1,1,0,0,0,1,1H84a1,1,0,0,0,1-1v-3a1,1,0,0,0-1-1Z"/><path class="cls-3" d="M66.5,63.76a1.24,1.24,0,0,1-.33,0A1.5,1.5,0,0,1,65,61.94c.24-1.12,6.23-27.54,20.28-45.6a1.5,1.5,0,0,1,2.36,1.84C74.06,35.7,68,62.32,68,62.59A1.5,1.5,0,0,1,66.5,63.76Z"/><path class="cls-3" d="M77.5,57.76a1.39,1.39,0,0,1-.53-.1,1.49,1.49,0,0,1-.87-1.93c6.4-16.95,14-36.16,23.29-51.89C88.06,7.26,77.8,16.09,68.85,30.15L70,36a1.5,1.5,0,1,1-2.94.56l-1.24-6.41A1.47,1.47,0,0,1,66,29.05C76.38,12.54,88.59,2.77,102.29,0a1.5,1.5,0,0,1,1.56,2.27c-10.08,16-18.16,36.53-24.95,54.49A1.49,1.49,0,0,1,77.5,57.76Z"/><path class="cls-3" d="M63.5,55.76a1.49,1.49,0,0,1-1.27-.7l-5-8a1.5,1.5,0,0,1-.09-1.42c1.6-3.49,3.26-6.82,4.94-9.9a1.5,1.5,0,1,1,2.63,1.43c-1.53,2.81-3,5.82-4.51,9l4.57,7.32a1.49,1.49,0,0,1-.48,2.06A1.42,1.42,0,0,1,63.5,55.76Z"/><path class="cls-3" d="M84.5,36.76h-3a1.5,1.5,0,0,1,0-3h3a1.5,1.5,0,0,1,0,3Z"/><path class="cls-3" d="M91.5,13.76a1.5,1.5,0,0,1-.29-3l5-1a1.5,1.5,0,1,1,.58,2.94l-5,1A1.36,1.36,0,0,1,91.5,13.76Z"/></g></g></svg>