<svg xmlns="http://www.w3.org/2000/svg" viewBox="0 0 119.99 119.42"><defs><style>.cls-1{fill:#61c4f2;}.cls-2{fill:#f86464;}.cls-3{fill:#263357;}</style></defs><g id="Слой_2" data-name="Слой 2"><g id="icons"><path class="cls-1" d="M7.13,95.49c.34.32.69.62,1,.93H40.46C37.06,85.33,33,71.73,33,69.58c0-3.7,4.63-6.47,4.63-6.47A45.54,45.54,0,0,1,27.48,48.3a27.46,27.46,0,0,0-12.95,13l9.25,7.4C12.54,74.94,9,82.74,7.13,95.49Z"/><path class="cls-1" d="M62.65,69.58c0,2.15-4,15.75-7.43,26.84h16.1c-.63-1.21-2.86-2.76-2.2-4.21S76.69,79,77.61,77.66c-.79-1.44-2.54-5.34-1.38-7.17l2.42-3.25c-3-7.13-3.7-11.89-2.42-13.14a34.23,34.23,0,0,0-8-5.8A45.54,45.54,0,0,1,58,63.11S62.65,65.88,62.65,69.58Z"/><path class="cls-1" d="M65.23,14.42c-2.05-5.12-5.09-11.35-8-12.32C53.36.81,50.9,4.68,48.32,4.68s-5.16-3.87-9-2.58c-2.9,1-5.91,7.2-7.94,12.32Z"/><path class="cls-1" d="M77.25,22.45l-9.52-1.57-.14-.46H29l-.15.46-9.61,1.57a2.81,2.81,0,0,0-1.49,4.36c4.82,6.28,25.39,4.85,30.55,4.85s25.6,1.43,30.43-4.85A2.82,2.82,0,0,0,77.25,22.45Z"/><rect class="cls-2" x="42" y="74.42" width="11" height="9" rx="3.4"/><path class="cls-3" d="M68.89,45l-.29,0a1.49,1.49,0,0,1-1.18-1.76,3.62,3.62,0,0,1,1.74-2.34A4.07,4.07,0,0,0,71.06,38a10.56,10.56,0,0,0,.34-2.89,1.5,1.5,0,1,1,3-.18A12.63,12.63,0,0,1,74,38.66a7,7,0,0,1-3.08,4.7c-.48.33-.51.38-.53.46A1.5,1.5,0,0,1,68.89,45Z"/><path class="cls-3" d="M27.28,45a1.49,1.49,0,0,1-1.47-1.21c0-.08,0-.13-.53-.46a7,7,0,0,1-3.09-4.7,12.92,12.92,0,0,1-.41-3.77,1.5,1.5,0,1,1,3,.18A10.18,10.18,0,0,0,25.11,38,4.07,4.07,0,0,0,27,40.9a3.62,3.62,0,0,1,1.74,2.34A1.49,1.49,0,0,1,27.57,45Z"/><polygon class="cls-2" points="52.9 96.42 50.65 81.42 45.03 81.42 42.78 96.42 52.9 96.42"/><path class="cls-3" d="M48.26,68.42h-.35c-10.73,0-20-10-22.11-23.82a1.5,1.5,0,1,1,3-.45c1.86,12.32,9.91,21.27,19.15,21.27h.35c9.24,0,17.29-9,19.15-21.27a1.5,1.5,0,1,1,3,.45C68.3,58.4,59,68.42,48.26,68.42Z"/><path class="cls-3" d="M43.54,59.29a6.74,6.74,0,0,1-3-.72,8.83,8.83,0,0,1-4.14-5.13A1.49,1.49,0,0,1,36.73,52a1.51,1.51,0,0,1,1.48-.41,4.83,4.83,0,0,0,3.43-.13,7.06,7.06,0,0,0,.8-.48,5.63,5.63,0,0,1,2.13-1,5.43,5.43,0,0,1,3.51.55A5.47,5.47,0,0,1,51.6,50a5.63,5.63,0,0,1,2.13,1,7.06,7.06,0,0,0,.8.48,4.83,4.83,0,0,0,3.43.13,1.51,1.51,0,0,1,1.48.41,1.49,1.49,0,0,1,.35,1.48,8.83,8.83,0,0,1-4.14,5.13,6.82,6.82,0,0,1-6.92-.5,2.34,2.34,0,0,0-1.31,0A7,7,0,0,1,43.54,59.29Zm-3.07-4.52a4.45,4.45,0,0,0,1.39,1.12,4,4,0,0,0,3.91-.31,4.77,4.77,0,0,1,4.63,0,4,4,0,0,0,3.91.31,4.45,4.45,0,0,0,1.39-1.12,6.75,6.75,0,0,1-2.47-.65,9.41,9.41,0,0,1-1.16-.68,2.67,2.67,0,0,0-1-.51,3,3,0,0,0-2.13.58,1.47,1.47,0,0,1-1.63,0,3,3,0,0,0-2.13-.58,2.67,2.67,0,0,0-1,.51,9.41,9.41,0,0,1-1.16.68A6.75,6.75,0,0,1,40.47,54.77Z"/><path class="cls-3" d="M64.5,98.42H7.28A1.48,1.48,0,0,1,6.19,98a1.5,1.5,0,0,1-.41-1.12c.53-8.48,3.86-16.69,8.91-22a1.5,1.5,0,0,1,2.17,2.08c-4.2,4.39-7.17,11.36-7.95,18.49H64.5a1.5,1.5,0,0,1,0,3Z"/><path class="cls-3" d="M42.34,47.39H36.69A3.73,3.73,0,0,1,33,44.13l-.31-2.5a3.72,3.72,0,0,1,3.69-4.18h6.27a3.72,3.72,0,0,1,3.69,4.18L46,44.13A3.74,3.74,0,0,1,42.34,47.39Zm-6-7a.78.78,0,0,0-.78.88l.31,2.49a.78.78,0,0,0,.78.69h5.65a.79.79,0,0,0,.78-.69l.31-2.49a.8.8,0,0,0-.19-.62.78.78,0,0,0-.59-.26Z"/><path class="cls-3" d="M59.92,47.39H54.27a3.73,3.73,0,0,1-3.69-3.26l-.31-2.5A3.72,3.72,0,0,1,54,37.45h6.27a3.72,3.72,0,0,1,3.69,4.18l-.31,2.5A3.74,3.74,0,0,1,59.92,47.39Zm-6-7a.78.78,0,0,0-.59.26.76.76,0,0,0-.19.62l.31,2.49a.78.78,0,0,0,.78.69h5.65a.79.79,0,0,0,.78-.69L61,41.27a.76.76,0,0,0-.19-.62.78.78,0,0,0-.59-.26Z"/><path class="cls-3" d="M45.51,42.91a1.51,1.51,0,0,1-1-2.62c1.49-1.41,6.11-1.41,7.61,0a1.5,1.5,0,0,1-2.06,2.18,6.31,6.31,0,0,0-3.55,0A1.43,1.43,0,0,1,45.51,42.91Z"/><path class="cls-3" d="M47.27,33.3c-16.12,0-27.48-1-30.72-5.48A4.32,4.32,0,0,1,16,23.91a4.38,4.38,0,0,1,2.86-2.76l.19,0,8.69-1.42C29.12,15.28,33.72,2,38.81.34c3-1,5.39.42,7.13,1.46a6,6,0,0,0,2.38,1,5.74,5.74,0,0,0,2.33-1c1.71-1,4.06-2.46,7.06-1.46,5.08,1.7,9.75,15,11.18,19.35l8.61,1.42.19,0a4.25,4.25,0,0,1,2.77,2.6,4.54,4.54,0,0,1-.44,4c-2.9,4.56-14.28,5.5-31.7,5.55ZM19.61,24.05a1.32,1.32,0,0,0-.8.83A1.29,1.29,0,0,0,19,26.07c3.09,4.29,22.17,4.24,29.34,4.23,8,0,26.56-.07,29.16-4.16a1.52,1.52,0,0,0,.17-1.35,1.21,1.21,0,0,0-.75-.74L67.49,22.5a1.5,1.5,0,0,1-1.19-1c-2.17-7-6.57-17.29-9.54-18.28-1.68-.56-3,.24-4.56,1.18a7.71,7.71,0,0,1-3.88,1.47,7.83,7.83,0,0,1-3.9-1.46c-1.6-.94-3-1.76-4.66-1.19-3,1-7.32,11.28-9.45,18.27a1.49,1.49,0,0,1-1.2,1Z"/><path class="cls-3" d="M31.65,97.48a1.51,1.51,0,0,1-1.32-.79L19.23,76.34a1.5,1.5,0,0,1,.16-1.68L23,70.32l-9.85-7.38a1.52,1.52,0,0,1-.54-1.61c2-7,14-14.43,14.54-14.75a1.5,1.5,0,0,1,1.57,2.56C25.73,51,18,56.53,15.86,61.21l10.21,7.66a1.47,1.47,0,0,1,.59,1A1.52,1.52,0,0,1,26.32,71l-4,4.76L33,95.26a1.49,1.49,0,0,1-.6,2A1.4,1.4,0,0,1,31.65,97.48Z"/><path class="cls-3" d="M40.9,97.48a1.5,1.5,0,0,1-1.43-1L33,76.07a19.54,19.54,0,0,1-.84-9.35,1.5,1.5,0,1,1,3,.48,16.52,16.52,0,0,0,.74,7.94l6.48,20.38a1.5,1.5,0,0,1-1,1.88A1.42,1.42,0,0,1,40.9,97.48Z"/><path class="cls-3" d="M54.78,97.48a1.55,1.55,0,0,1-.47-.08,1.51,1.51,0,0,1-1-1.89l6.71-20.36a16.57,16.57,0,0,0,.74-8,1.5,1.5,0,1,1,3-.48,19.53,19.53,0,0,1-.85,9.37L56.2,96.44A1.48,1.48,0,0,1,54.78,97.48Z"/><path class="cls-3" d="M59.4,81.9a1.44,1.44,0,0,1-.85-.28l-8.87-6.2H45.94L37,80.76a1.5,1.5,0,0,1-1.54-2.57l9.25-5.56a1.52,1.52,0,0,1,.78-.21h4.62a1.46,1.46,0,0,1,.86.27l9.26,6.48a1.5,1.5,0,0,1,.37,2.09A1.54,1.54,0,0,1,59.4,81.9Z"/><path class="cls-2" d="M97.37,47.35a8.38,8.38,0,0,0-1.75.18,4.73,4.73,0,0,1-4.21,7,4.66,4.66,0,0,1-2.19-.56A8.45,8.45,0,0,0,89,55.68a8.34,8.34,0,1,0,8.34-8.33Z"/><path class="cls-3" d="M67.5,22.42h-38a1.5,1.5,0,0,1,0-3h38a1.5,1.5,0,0,1,0,3Z"/><path class="cls-3" d="M55.5,16.42h-23a1.5,1.5,0,1,1,0-3h23a1.5,1.5,0,0,1,0,3Z"/><path class="cls-2" d="M72.08,77.78h9.25a0,0,0,0,1,0,0V94a3.17,3.17,0,0,1-3.17,3.17H75.25A3.17,3.17,0,0,1,72.08,94V77.78a0,0,0,0,1,0,0Z" transform="translate(58.87 -27.49) rotate(32.42)"/><path class="cls-3" d="M97,77.42a23.07,23.07,0,1,1,5.05-.56A22.85,22.85,0,0,1,97,77.42Zm.07-43a20,20,0,1,0,10.69,3.11A20,20,0,0,0,97,34.43Z"/><path class="cls-3" d="M89.34,84.05a5.93,5.93,0,0,1-3.19-.93L78.07,78a6,6,0,0,1-1.83-8.24l2.06-3.26a1.5,1.5,0,0,1,2.54,1.61l-2.07,3.26a3,3,0,0,0,.91,4.1l8.08,5.13a3,3,0,0,0,4.1-.92l2.07-3.25A1.49,1.49,0,0,1,96,76,1.51,1.51,0,0,1,96.46,78l-2.07,3.25A6,6,0,0,1,89.34,84.05Z"/><path class="cls-3" d="M75.42,98.47a4.67,4.67,0,0,1-2.5-.73l-2.46-1.56a4.65,4.65,0,0,1-2-2.93A4.69,4.69,0,0,1,69,89.73L77.74,76a1.52,1.52,0,0,1,.94-.65,1.49,1.49,0,0,1,1.13.19l7.81,5a1.5,1.5,0,0,1,.47,2.07L79.37,96.3a4.62,4.62,0,0,1-2.93,2.06A5.05,5.05,0,0,1,75.42,98.47Zm4-19.59L71.56,91.34a1.65,1.65,0,0,0-.22,1.26,1.59,1.59,0,0,0,.73,1l2.46,1.57a1.66,1.66,0,0,0,2.3-.52l7.92-12.46Z"/><path class="cls-3" d="M97.37,65.54c-9.25,0-16.5-8.86-16.8-9.24a1.5,1.5,0,0,1,0-1.88c.3-.38,7.55-9.23,16.8-9.23s16.49,8.85,16.79,9.23a1.48,1.48,0,0,1,0,1.88C113.86,56.68,106.61,65.54,97.37,65.54ZM83.75,55.36c2,2.14,7.44,7.18,13.62,7.18S109,57.5,111,55.36c-2-2.14-7.45-7.17-13.62-7.17S85.77,53.22,83.75,55.36Z"/><circle class="cls-3" cx="97" cy="55.42" r="3"/><path class="cls-3" d="M51.5,110.42c-2.47,0-4-1.61-5.07-3-.91-1.19-3.49-2-5.33-2H2.5a1.5,1.5,0,0,1,0-3H41.1c2.63,0,6.13,1.09,7.71,3.18,1,1.29,1.77,1.82,2.69,1.82s1.7-.53,2.69-1.82c1.58-2.09,5.08-3.18,7.71-3.18h38.6a1.5,1.5,0,0,1,0,3H61.9c-1.84,0-4.42.8-5.33,2C55.51,108.81,54,110.42,51.5,110.42Z"/><path class="cls-2" d="M52,119.42c-4.57,0-7-1.17-9.38-2.91l-.13-.1c-1.42-1.07-2.65-2-3.89-2H0v-5H38.6c2.91,0,5,1.59,6.89,3l.13.1c1.39,1,2.83,1.91,6.38,1.91a11.3,11.3,0,0,0,6.38-1.91l.13-.1c1.86-1.4,4-3,6.89-3H104v5H65.4c-1.24,0-2.47.92-3.89,2l-.13.1A16.39,16.39,0,0,1,52,119.42Z"/></g></g></svg>