<svg xmlns="http://www.w3.org/2000/svg" viewBox="0 0 124.52 117.22"><defs><style>.cls-1{fill:#61c4f2;}.cls-2{fill:#f86464;}.cls-3{fill:#263357;}</style></defs><g id="Слой_2" data-name="Слой 2"><g id="icons"><path class="cls-1" d="M40.5,11.68C37.07,9.56,26.93,3.22,23.18,1.89c13.27-2,28.1,3.93,46.57,12.18C74.41,16.15,84.53,31.5,84.53,31.5s-7.83,2.27-9,5.18C74,40.69,79.23,44,86.17,47.54L79.5,50.68s-18.78-9.44-15-17c2-4,9-5,9-5S61.16,15.08,53.58,14.13Z"/><path class="cls-1" d="M57.61,79.92l5.83.67C60.07,86.32,54.72,87.88,51,89c.29,1.18,1.7,4.3,1.14,6.25-.35,1.19-1.82,1.8-3.56,1.71A22.37,22.37,0,0,1,45,94.66s1.64-1.38.95-3.08A18.56,18.56,0,0,1,45,84.85C49.42,85.7,57.61,79.92,57.61,79.92Z"/><path class="cls-2" d="M66.18,50.79c-2.27-6-8.62-10.51-6.53-17.62,1.26-4.29,2.84-6,2.84-6s-11.3-8.09-16.3-9.09C26.36,14.14,14,8.18,1.5,13.05,11,14.18,23.32,16.94,23,25.18c-.16,4.14-6.24,6.41-10,15,7-1,15.23.38,18,5,3,5-3,9-3,17,5-6,11.78-5.62,15-4,4,2,3,7,4,9,0,0,2.91-4.65,10-7a10.31,10.31,0,0,1,10,2A20.23,20.23,0,0,0,66.18,50.79Z"/><path class="cls-2" d="M86.27,65.86c6.34-5.44,10.51-12.63,12.79-17.19-.75.21-1.27.39-1.27.39,0-1.89,1.84-6,1.65-6.7-.38-1.29-3.21-1.35-4.18-.75,0-2.4,1.34-4.19,4.37-5.19,0-2.39-2.07-4.72-5.37-7,8.65-.44,17.56,8,19.64,9.1s5.94,1.7,7.39,2.4,1.39,4.36,1.39,4.36l-2.62,1.16c.59,2.3-.07,4.94-1.21,6,0,0-4.48-4.47-7.53-3.91-2.74.51-5.19,3.74-5.19,3.74a14.32,14.32,0,0,1-1.3-1.8c-3.23,9.34-16.76,17.34-16.76,17.34S85.52,66.5,86.27,65.86Z"/><path class="cls-3" d="M47,68.68h-.07a1.52,1.52,0,0,1-1.27-.83,9.79,9.79,0,0,1-.71-3c-.33-2.52-.71-4.38-2.62-5.33-2.88-1.44-8.77-1.67-13.18,3.62a1.5,1.5,0,0,1-2.65-1,22.72,22.72,0,0,1,2.41-9.44c1.35-3.09,2-4.8.8-6.79-2.41-4-10.12-5.2-16.5-4.29a1.48,1.48,0,0,1-1.4-.57,1.5,1.5,0,0,1-.18-1.51,32.76,32.76,0,0,1,6.83-9.81c1.73-1.86,3-3.21,3-4.65.21-5.41-6.58-9-20.18-10.58A1.5,1.5,0,0,1,1,11.65c13.16-5.13,34.85-1.84,54.33,2.06,5.24,1,18.5,12.45,20,13.75a1.5,1.5,0,0,1-.86,2.63c-1.8.15-6.75,1.11-8.08,3.76-2,3.9,0,7.79,15.6,16.15a1.5,1.5,0,0,1-1.42,2.64C67.06,45.45,60,39.84,63.66,32.51c1.41-2.82,4.69-4.19,7.24-4.84-5.64-4.7-13.26-10.44-16.19-11-15.05-3-33.09-5.95-45.91-3.95C19.59,15,24.74,19.11,24.5,25.24c-.1,2.55-1.84,4.41-3.85,6.57a33.76,33.76,0,0,0-5.1,6.61c6.7-.38,13.89,1.24,16.74,6,2,3.4.74,6.38-.63,9.53A29,29,0,0,0,30,58.26a13.78,13.78,0,0,1,13.63-1.42c3.21,1.6,3.86,4.74,4.18,7a22.87,22.87,0,0,1,8.68-5.14A11.75,11.75,0,0,1,68,61.1a1.49,1.49,0,0,1,0,2.12,1.51,1.51,0,0,1-2.12,0,8.74,8.74,0,0,0-8.49-1.66C51,63.76,48.3,67.93,48.27,68A1.49,1.49,0,0,1,47,68.68Z"/><path class="cls-3" d="M86.17,49a1.51,1.51,0,0,1-.68-.16c-6.88-3.51-13.43-7.38-11.32-12.75,1-2.58,5.33-4.48,8-5.44-4-5.83-10.22-14-13-15.25C54.18,8.76,41.43,3.49,30.1,3a44.1,44.1,0,0,1,5.22,2.75,1.5,1.5,0,0,1-1.57,2.55,58.23,58.23,0,0,0-11.07-5,1.49,1.49,0,0,1-1-1.56A1.51,1.51,0,0,1,23,.4c13.78-2.06,29,4.07,47.4,12.3,4.92,2.19,14.36,16.36,15.42,18A1.5,1.5,0,0,1,85,32.94c-3.43,1-7.46,2.92-8,4.28-1.07,2.73,3.18,5.57,9.89,9A1.5,1.5,0,0,1,86.17,49Z"/><path class="cls-3" d="M33.65,69c-.45,0-.91,0-1.39,0-3-.21-10.71-1.38-15.91-7.89a1.5,1.5,0,0,1,2.34-1.87c4.46,5.57,11.12,6.59,13.77,6.76,8,.54,11.13-4.4,11.26-4.61A1.5,1.5,0,0,1,46.28,63C46.12,63.22,42.47,69,33.65,69Z"/><path class="cls-3" d="M123,47H123l-6.85-.31a1.5,1.5,0,1,1,.14-3l5.07.23c-.25-1.18-.76-2.4-1.61-2.46a21.44,21.44,0,0,1-3-.46L115,40.63C111.87,40.11,107,36,106.92,36c-4.29-3.66-8.87-4.46-14.19-5.39l-.13,0a1.5,1.5,0,0,1,.51-3l.14,0c5.51,1,10.71,1.87,15.62,6.05,1.72,1.47,5.09,3.74,6.65,4,.61.1,1.21.22,1.79.34a19.3,19.3,0,0,0,2.57.41c3.54.21,4.58,4.5,4.64,7a1.52,1.52,0,0,1-.45,1.1A1.48,1.48,0,0,1,123,47Z"/><path class="cls-3" d="M118.85,53.88a1.51,1.51,0,0,1-1.06-.44c-1.63-1.63-4.64-3.77-6.19-3.49-1.77.33-3.73,2.45-4.27,3.17a1.48,1.48,0,0,1-1.14.59,1.45,1.45,0,0,1-1.18-.5,12.85,12.85,0,0,1-2.26-3.69,17.08,17.08,0,0,0-4.47.95,1.49,1.49,0,0,1-2-1.37,16.77,16.77,0,0,1,1.1-4.81c.16-.46.34-1,.46-1.43a3.27,3.27,0,0,0-1.82,0A1.53,1.53,0,0,1,94,42.34a1.47,1.47,0,0,1,.48-2A5.87,5.87,0,0,1,99,40.09a3,3,0,0,1,1.86,1.85c.2.7,0,1.39-.63,3.29-.16.5-.36,1.11-.53,1.71,1.72-.4,3.77-.64,5,0a1.51,1.51,0,0,1,.76,1.09,5.2,5.2,0,0,0,.79,1.79A10,10,0,0,1,111.05,47c2.65-.5,5.68,1.57,7.46,3a6,6,0,0,0,.1-3.24,1.5,1.5,0,0,1,2.91-.75c.7,2.73,0,6-1.68,7.44A1.5,1.5,0,0,1,118.85,53.88Z"/><path class="cls-3" d="M110.61,43.28a1.31,1.31,0,0,1-.39-.05l-1.37-.37a1.5,1.5,0,1,1,.78-2.9l1.38.38a1.49,1.49,0,0,1,1,1.84A1.51,1.51,0,0,1,110.61,43.28Z"/><path class="cls-3" d="M103.64,39.47a1.46,1.46,0,0,1-.7-.18c-.13-.06-8.64-4.43-17.18-1.45a1.5,1.5,0,1,1-1-2.83c9.82-3.43,19.18,1.42,19.57,1.63a1.5,1.5,0,0,1-.7,2.83Z"/><path class="cls-3" d="M43.76,80.36a1.63,1.63,0,0,1-.31,0c-9.79-2.07-17.52-3.71-26.85-11C4.59,60,1.67,49,1.55,48.55a1.5,1.5,0,1,1,2.9-.74c0,.1,2.83,10.51,14,19.18,8.79,6.84,15.85,8.33,25.63,10.4a1.5,1.5,0,0,1-.31,3Z"/><path class="cls-3" d="M57.5,81.92a1.5,1.5,0,0,1,0-3c8.65-.19,19.18-2.83,22.56-7.5a1.5,1.5,0,1,1,2.43,1.76C78.3,78.93,67,81.71,57.53,81.92Z"/><path class="cls-3" d="M40.51,91.42a1.5,1.5,0,0,1-1.5-1.5,4.75,4.75,0,0,0-1.3-2.53,9.78,9.78,0,0,1-1.05-1.54,3.07,3.07,0,0,1-.14-2.61,5.13,5.13,0,0,1,3-2.49c2.43-.81,6.15-5.36,7-8a1.5,1.5,0,1,1,2.84,1c-1.05,3.16-5.27,8.73-9,9.95a2.41,2.41,0,0,0-1.18.79s0,0,.05.12a7.79,7.79,0,0,0,.74,1A7.29,7.29,0,0,1,42,89.92,1.5,1.5,0,0,1,40.51,91.42Z"/><path class="cls-3" d="M41,95.68a1.5,1.5,0,0,1,0-3,16.74,16.74,0,0,0,3.49-.23c-.1-.36-.3-.85-.42-1.16a6.24,6.24,0,0,1-.57-2.11,8.78,8.78,0,0,0-.84-3.33,1.51,1.51,0,0,1,.14-1.57,1.48,1.48,0,0,1,1.45-.58c.21,0,5.44.79,10.79-3.68a5.75,5.75,0,0,0,2.41-4,5.68,5.68,0,0,0-1.52-3.79,1.51,1.51,0,0,1,0-2.12,1.49,1.49,0,0,1,2.11,0,8.72,8.72,0,0,1,2.39,6A8.61,8.61,0,0,1,57,82.33a18.43,18.43,0,0,1-10.8,4.41,9.84,9.84,0,0,1,.34,2.44c0,.13.23.66.36,1a5.27,5.27,0,0,1,.56,3.46C46.8,95.52,44.15,95.68,41,95.68Z"/><path class="cls-3" d="M48.41,98.43a1.5,1.5,0,0,1,0-3,3.27,3.27,0,0,0,2.2-.76c0-.09-.11-.23-.22-.44a8.62,8.62,0,0,1-.78-1.89,7,7,0,0,1,0-3.58,1.53,1.53,0,0,1,1.16-1.06c.09,0,8.92-1.77,10.65-7.38a1.5,1.5,0,0,1,2.87.88c-1.86,6-9.11,8.48-11.88,9.2a4.11,4.11,0,0,0,.14,1.14A6.77,6.77,0,0,0,53,92.83a3.91,3.91,0,0,1,.59,2C53.63,96.73,51.19,98.43,48.41,98.43Z"/><path class="cls-3" d="M83,85.68a1.5,1.5,0,0,1,0-3,5.75,5.75,0,0,0,3.6-1c-.06-.17-.25-.74-1-3a1.5,1.5,0,0,1,0-.84,37.43,37.43,0,0,0,1-7.63,5.94,5.94,0,0,0-2.33-4.75,1.5,1.5,0,0,1,1.66-2.5,9,9,0,0,1,3.67,7.25,39.32,39.32,0,0,1-.94,7.93c.25.77.8,2.41.85,2.56a2.75,2.75,0,0,1-.32,2.61c-1.16,1.73-4,2.37-6.07,2.4Z"/><path class="cls-3" d="M83,81.68a1.48,1.48,0,0,1-.87-.28,3.74,3.74,0,0,1-1.64-4.35l0-.18q.06-.25.15-.57a4.24,4.24,0,0,0-.33-3.58,28.59,28.59,0,0,1-1.81-5.19,1.5,1.5,0,1,1,2.92-.7A26.24,26.24,0,0,0,83,71.37a7.16,7.16,0,0,1,.53,5.78,2.9,2.9,0,0,0-.09.34l0,.22c-.16.7-.18.79.45,1.25A1.5,1.5,0,0,1,83,81.68Z"/><path class="cls-3" d="M13.51,59A1.5,1.5,0,0,1,12,57.69l-.57-4.92a1.5,1.5,0,1,1,3-.35L15,57.35A1.5,1.5,0,0,1,13.68,59Z"/><path class="cls-3" d="M9.11,51.1a1.49,1.49,0,0,1-1.49-1.38l-.19-2.46a1.5,1.5,0,1,1,3-.24l.19,2.47A1.51,1.51,0,0,1,9.23,51.1Z"/><path class="cls-3" d="M22.7,35.9a1.5,1.5,0,0,1-.54-2.9C37.83,27,50.29,25.83,57,25.72a36.36,36.36,0,0,0-6.2-3.16C47.48,21.39,32.31,19,24.76,17.89a1.5,1.5,0,1,1,.43-3c.9.13,22.17,3.26,26.61,4.8S62.89,26,63.17,26.17a1.5,1.5,0,0,1,.53,1.76,1.48,1.48,0,0,1-1.57.95c-.16,0-16.26-1.73-38.89,6.93A1.7,1.7,0,0,1,22.7,35.9Z"/><path class="cls-3" d="M83.59,50.06a1.5,1.5,0,0,1-.29-3,44.24,44.24,0,0,0,9.88-3.23,1.5,1.5,0,1,1,1.33,2.69A46.84,46.84,0,0,1,83.88,50Z"/><path class="cls-3" d="M88.52,68.68A1.51,1.51,0,0,1,87.58,66c.11-.08,10.29-8.24,14.65-15.59a1.5,1.5,0,0,1,2.58,1.53C100.17,59.77,89.89,68,89.45,68.35A1.47,1.47,0,0,1,88.52,68.68Z"/><path class="cls-3" d="M62.52,108.22c-2.47,0-4-1.6-5.07-3-.91-1.19-3.49-2-5.33-2H13.52a1.5,1.5,0,1,1,0-3h38.6c2.63,0,6.13,1.1,7.71,3.18,1,1.3,1.76,1.82,2.69,1.82s1.7-.52,2.68-1.82c1.59-2.08,5.09-3.18,7.72-3.18h38.6a1.5,1.5,0,1,1,0,3H72.92c-1.84,0-4.42.81-5.33,2C66.53,106.62,65,108.22,62.52,108.22Z"/><path class="cls-1" d="M62.52,117.22c-4.57,0-7.05-1.16-9.38-2.91l-.13-.1c-1.42-1.07-2.65-2-3.89-2H10.52v-5h38.6c2.91,0,5,1.59,6.89,3l.13.1c1.39,1,2.83,1.91,6.38,1.91a11.3,11.3,0,0,0,6.38-1.91l.13-.09c1.86-1.41,4-3,6.89-3h38.6v5H75.92c-1.24,0-2.47.93-3.89,2l-.13.1A16.31,16.31,0,0,1,62.52,117.22Z"/><path class="cls-3" d="M65.52,99.22a1.49,1.49,0,0,1-.77-2.78L67,95.11A14.82,14.82,0,0,1,73.7,93l1-.06c13.9-.8,24.88-1.44,31.75-8.31a1.51,1.51,0,0,1,2.12,0,1.49,1.49,0,0,1,0,2.12c-7.68,7.68-19.74,8.38-33.7,9.19l-1,0a11.94,11.94,0,0,0-5.36,1.66L66.29,99A1.44,1.44,0,0,1,65.52,99.22Z"/></g></g></svg>