<svg xmlns="http://www.w3.org/2000/svg" viewBox="0 0 111 123.49"><defs><style>.cls-1{fill:#263357;}.cls-2{fill:#f86464;}.cls-3{fill:#61c4f2;}</style></defs><g id="Слой_2" data-name="Слой 2"><g id="icons"><path class="cls-1" d="M55.5,114.83a6.17,6.17,0,0,1-4.77-2.46,9.9,9.9,0,0,0-6.36-2.88H3.5a1.5,1.5,0,0,1,0-3H44.37A12.8,12.8,0,0,1,53,110.41a2.91,2.91,0,0,0,5,0,12.8,12.8,0,0,1,8.63-3.92H107.5a1.5,1.5,0,0,1,0,3H66.63a9.9,9.9,0,0,0-6.36,2.88A6.17,6.17,0,0,1,55.5,114.83Z"/><path class="cls-2" d="M55.5,123.49c-4.88,0-7.53-1.17-10-2.92l-.14-.1c-1.52-1.06-2.83-2-4.15-2H0v-5H41.2c3.11,0,5.36,1.59,7.35,3l.14.1c1.49,1,3,1.91,6.81,1.91a12.63,12.63,0,0,0,6.81-1.91l.14-.1c2-1.4,4.24-3,7.35-3H111v5H69.8c-1.32,0-2.63.92-4.15,2l-.14.1A18.23,18.23,0,0,1,55.5,123.49Z"/><path class="cls-1" d="M58.71,105.13a1.5,1.5,0,0,1-.77-2.79l2.37-1.42a15.59,15.59,0,0,1,7.15-2.2l1.08-.07c14.89-.86,26.65-1.54,34-8.92a1.5,1.5,0,1,1,2.12,2.13c-8.18,8.18-20.45,8.89-36,9.79l-1.08.06a12.74,12.74,0,0,0-5.79,1.78l-2.37,1.43A1.54,1.54,0,0,1,58.71,105.13Z"/><path class="cls-3" d="M70.73,64.87A7.35,7.35,0,0,1,67,58.46V53.18s4.13-5.31,4-7.69v-9c-2.09-1.36-16-7-16-7s-16,6-18,7v9.62a21.66,21.66,0,0,0,4,6.38c0,2.77,0,10-1,11a61.25,61.25,0,0,1-6,4c0,.78-.35,12.29,0,13C37.25,87,46.8,92,55.42,93.77c9.45-1.91,17.74-7.27,20.58-13l-.12-13Z"/><path class="cls-2" d="M54,12.31s-4.83-5.7-9.49-5.7S36.9,10.41,36,14.2c-1.55,6.18-5.7,13.29-5.7,13.29H33.1c-.85,5.76-3.36,12.4-5.69,18a56.32,56.32,0,0,0,10.44-3.79s-1-10.44,1.89-14.23,9.72-6,9.72-6Z"/><path class="cls-1" d="M26.13,98H26a1.47,1.47,0,0,1-1-.44L9.74,82.33A1.51,1.51,0,0,1,9.32,81c1-6,5.92-12.51,11.66-15.37a12.37,12.37,0,0,1,10.39-.24l2.73,1.2a1.5,1.5,0,0,1-1.2,2.75l-2.72-1.2a9.38,9.38,0,0,0-7.86.18,19.76,19.76,0,0,0-9.89,12.44L26.59,94.94c2.5-.19,5.39-1.93,8.81-5.28a1.5,1.5,0,0,1,2.1,2.15C33.22,96,29.6,98,26.13,98Z"/><path class="cls-1" d="M54.5,95.27a1.36,1.36,0,0,1-.29,0c-9.8-2-18.86-7.78-22.05-14.17A1.38,1.38,0,0,1,32,80.4V67a1.51,1.51,0,0,1,.83-1.35l3.91-2C39,62.19,40.05,60.63,40,59s0-5.89,0-6.06a1.5,1.5,0,0,1,3,0s0,4.24,0,5.93c.09,2.72-1.48,5.17-4.67,7.29l-.16.1L35,67.91V80c2.88,5.34,11,10.41,19.5,12.2C63,90.45,71.12,85.38,74,80V68.28l-4.64-2.57A8.5,8.5,0,0,1,65,58.29V54a1.5,1.5,0,0,1,3,0v4.3a5.47,5.47,0,0,0,2.82,4.79l5.41,3A1.48,1.48,0,0,1,77,67.4v13a1.38,1.38,0,0,1-.16.67c-3.19,6.39-12.26,12.21-22.05,14.17A1.36,1.36,0,0,1,54.5,95.27Z"/><path class="cls-1" d="M54.5,61.46a8.48,8.48,0,0,1-4-1C43.87,56.92,36,51.48,36,45.6V31.37c0-7.54,11.16-12.88,14.72-12.88h7.56C61.84,18.49,73,23.83,73,31.37V45.6c0,5.88-7.87,11.32-14.47,14.85A8.48,8.48,0,0,1,54.5,61.46Zm-2.62-3.65a5.59,5.59,0,0,0,5.24,0C65.18,53.49,70,48.93,70,45.6V31.37c0-5.44-9.42-9.88-11.72-9.88H50.72c-2.3,0-11.72,4.44-11.72,9.88V45.6c0,3.33,4.82,7.89,12.88,12.21Z"/><path class="cls-1" d="M54.43,46.3a1.31,1.31,0,0,1-.39,0L38,42a1.5,1.5,0,1,1,.77-2.89l15.66,4.17,15.66-4.17A1.5,1.5,0,1,1,70.86,42l-16,4.28A1.31,1.31,0,0,1,54.43,46.3Z"/><path class="cls-1" d="M70.47,37.75a1.44,1.44,0,0,1-.6-.13L54.45,30.84,39,37.62a1.5,1.5,0,0,1-2-.77,1.52,1.52,0,0,1,.77-2l16.07-7a1.56,1.56,0,0,1,1.2,0l16,7a1.5,1.5,0,0,1-.61,2.88Z"/><path class="cls-1" d="M61.5,52.49A1.5,1.5,0,0,1,60,51V48a1.5,1.5,0,0,1,3,0v3A1.5,1.5,0,0,1,61.5,52.49Z"/><path class="cls-1" d="M47.5,52.49A1.5,1.5,0,0,1,46,51V48a1.5,1.5,0,0,1,3,0v3A1.5,1.5,0,0,1,47.5,52.49Z"/><path class="cls-1" d="M54.43,72h-.21c-6.85-1-10.47-3.92-13.79-8A1.5,1.5,0,0,1,42.76,62c2.92,3.62,5.91,6.05,11.67,6.92,5.77-.87,8.75-3.3,11.67-6.92a1.5,1.5,0,1,1,2.33,1.89C65.11,68,61.5,71,54.64,72Z"/><path class="cls-1" d="M59.78,21.7a1.49,1.49,0,0,1-1.34-.83l-4-8-4,8a1.49,1.49,0,0,1-2,.68,1.51,1.51,0,0,1-.67-2L53.09,8.84a1.5,1.5,0,0,1,2.68,0l5.35,10.69a1.51,1.51,0,0,1-.67,2A1.63,1.63,0,0,1,59.78,21.7Z"/><path class="cls-1" d="M22.84,34.67a20.41,20.41,0,0,1-2.76-.18,1.5,1.5,0,0,1-.85-2.55,38.56,38.56,0,0,0,9.1-15.45C33-1,43.19-.38,46.2.22c7.38,1.48,9.58,8.56,9.67,8.86A1.5,1.5,0,1,1,53,9.94c-.08-.23-1.8-5.66-7.38-6.78-3-.6-10.51-.45-14.39,14.1a40.83,40.83,0,0,1-7.7,14.38c1.89-.07,4-.46,5.19-1.6a1.5,1.5,0,1,1,2.12,2.13C28.76,34.25,25.29,34.67,22.84,34.67Z"/><path class="cls-1" d="M19.34,47.79a1.5,1.5,0,0,1-1.06-2.56c3.5-3.5,6.26-11.67,6.28-11.75a1.5,1.5,0,1,1,2.85,1,50.15,50.15,0,0,1-4.79,10.13,21.89,21.89,0,0,0,8.29-2.41,1.5,1.5,0,0,1,1.54,2.58C27.41,47.75,19.67,47.79,19.34,47.79Z"/><path class="cls-1" d="M54.5,57.49A1.5,1.5,0,0,1,53,56V50a1.5,1.5,0,0,1,3,0v6A1.5,1.5,0,0,1,54.5,57.49Z"/><path class="cls-1" d="M54.51,40.49A1.5,1.5,0,0,1,53,39V31a1.5,1.5,0,0,1,3,0v8a1.51,1.51,0,0,1-1.5,1.51Z"/><path class="cls-1" d="M21.71,101.27a1.52,1.52,0,0,1-.79-.22L5.74,91.56a1.51,1.51,0,0,1-.48-2.07L10,81.9a1.5,1.5,0,1,1,2.54,1.59l-4,6.32L22.51,98.5a1.51,1.51,0,0,1,.48,2.07A1.52,1.52,0,0,1,21.71,101.27Z"/><path class="cls-1" d="M98.57,82.77a1.5,1.5,0,0,1-1.48-1.25c-.86-5.18-5.08-10.72-10-13.18a9.37,9.37,0,0,0-7.87-.17l-2.79,1.2a1.5,1.5,0,1,1-1.18-2.76L78,65.41a12.37,12.37,0,0,1,10.39.24C94.14,68.51,99,75,100.05,81a1.5,1.5,0,0,1-1.23,1.73Z"/><path class="cls-1" d="M29.83,90.16a1.51,1.51,0,0,1-1.2-.6L15.8,72.44a1.49,1.49,0,0,1,.3-2.1,1.51,1.51,0,0,1,2.1.3L31,87.76a1.5,1.5,0,0,1-.3,2.1A1.52,1.52,0,0,1,29.83,90.16Z"/><circle class="cls-1" cx="54.5" cy="84.99" r="1.5"/><circle class="cls-1" cx="46.5" cy="82.99" r="1.5"/><circle class="cls-1" cx="62.5" cy="81.99" r="1.5"/><circle class="cls-1" cx="40.5" cy="77.99" r="1.5"/><circle class="cls-1" cx="69.5" cy="76.99" r="1.5"/></g></g></svg>