<svg xmlns="http://www.w3.org/2000/svg" viewBox="0 0 116.28 114.16"><defs><style>.cls-1{fill:#263357;}.cls-2{fill:#61c4f2;}.cls-3{fill:#f86464;}</style></defs><g id="Слой_2" data-name="Слой 2"><g id="icons"><path class="cls-1" d="M99.09,69.13a1.42,1.42,0,0,1-.61-.13,1.51,1.51,0,0,1-.88-1.25l-.29-3.58a8.27,8.27,0,0,0-1.67-4.39l-2.17-2.86a1.51,1.51,0,0,1-.17-1.52,1.48,1.48,0,0,1,1.25-.88l3.58-.28a8.4,8.4,0,0,0,4.38-1.67l2.86-2.17a1.52,1.52,0,0,1,1.52-.18,1.54,1.54,0,0,1,.89,1.25l.28,3.58a8.35,8.35,0,0,0,1.67,4.39l2.17,2.86a1.5,1.5,0,0,1-1.08,2.4l-3.58.28a8.4,8.4,0,0,0-4.38,1.67L100,68.82A1.47,1.47,0,0,1,99.09,69.13ZM97.52,57.29,98,58a11.24,11.24,0,0,1,2.27,6l.07.85.68-.52A11.32,11.32,0,0,1,107,62l.84-.06-.51-.68a11.32,11.32,0,0,1-2.27-6l-.07-.84-.67.51a11.39,11.39,0,0,1-6,2.27Z"/><path class="cls-2" d="M98,34.75,98,36.59a5,5,0,0,0,.67,2.78l.92,1.6-1.85-.09a5.06,5.06,0,0,0-2.77.67l-1.6.92.09-1.84a5.15,5.15,0,0,0-.67-2.77l-.93-1.61,1.85.09a5.06,5.06,0,0,0,2.77-.67Z"/><path class="cls-3" d="M17.56,30.43,12,33.76,2,41.54,24.22,59.32,32,53.76c-5.71-4.08-6.08-8.45-8.89-17.77Z"/><path class="cls-3" d="M66.44,30.43,72,33.76l10,7.78L59.78,59.32l-8.89-4.44c5.71-4.09,7.19-9.57,10-18.89Z"/><path class="cls-2" d="M41.92,3.37A21.25,21.25,0,0,1,55.68,8.22a17.22,17.22,0,0,1,5.22,8.32A17.67,17.67,0,0,1,59.45,28.9c-.25-.38-.83-4.73-2.56-7.35-2.12-3.21-4.8-4-6.43-4-4.15.07-8.54,6.69-8.54,6.69S37.67,17.65,33,17.58c-1.63,0-4.32.76-6.43,4-1.74,2.62-2.32,7-2.56,7.35a17.67,17.67,0,0,1-1.45-12.36,17.14,17.14,0,0,1,5.22-8.32C32.62,4.08,38.67,3.37,41.92,3.37Z"/><path class="cls-3" d="M0,114.16H92.2c10.75,0,16.8-4.72,16.8-18,0-14.23-6-19-16.8-19H0v4H91.48c8.69,0,13.52,2.93,13.52,15.48,0,11.59-4.83,13.52-13.52,13.52H0Z"/><path class="cls-1" d="M86.5,97.16h-76a1.5,1.5,0,0,1,0-3h76a1.5,1.5,0,0,1,0,3Z"/><path class="cls-1" d="M88.5,89.16H9.5a1.5,1.5,0,0,1,0-3h79a1.5,1.5,0,0,1,0,3Z"/><path class="cls-1" d="M88.5,105.16H9.5a1.5,1.5,0,0,1,0-3h79a1.5,1.5,0,0,1,0,3Z"/><path class="cls-1" d="M95.7,104.19a1.51,1.51,0,0,1-1.06-.44,11.44,11.44,0,0,1,0-16.2,1.5,1.5,0,1,1,2.11,2.13,8.45,8.45,0,0,0,0,11.94,1.5,1.5,0,0,1-1,2.57Z"/><path class="cls-1" d="M41.83,48a10.91,10.91,0,0,1-6-1.94,1.5,1.5,0,1,1,1.66-2.5,7.4,7.4,0,0,0,8.75,0A1.5,1.5,0,0,1,47.87,46,10.92,10.92,0,0,1,41.83,48Z"/><path class="cls-2" d="M101.49,13.81c-1.34-.09-2.08-1.41-1.61-3.17-2.83,1.49-3.41,6.42-4.27,7.4-2.55,2.9-6.33,3.69-6.89,1,0-.38,1-.25,1.81-.55a1.39,1.39,0,0,0,.23-2.42c-1.13-.62-2.62,1-2.62,1a1.53,1.53,0,0,0-.76-.76,1.73,1.73,0,0,0-1.11-.08s.25-2.21-1-2.65a1.39,1.39,0,0,0-1.66,1.78c.32.8,1.07,1.46.79,1.72-2.35,1.34-4.27-2-3.79-5.85.16-1.29,3.47-5,2.7-8.1-1,1.52-2.48,1.84-3.44.89C76.62.85,65.77-1.8,60.49,1.55c3.15,1.05,8.72,4.84,8.72,9.54,3.24,1.08,7.67,7.19,7.67,10.43a7.91,7.91,0,0,1,3.58,1.69,7.82,7.82,0,0,1,1.9,4.34,8.65,8.65,0,0,1,4-1.48,7.37,7.37,0,0,1,3.9,1.12s6.48-3.56,13-1.4c3.24-3.24,10.79-1.08,13.09.86C115.29,20.48,106.11,14.12,101.49,13.81Z"/><path class="cls-1" d="M7.93,73.58a1.55,1.55,0,0,1-.56-.11,1.51,1.51,0,0,1-.83-2C11.4,59.6,22.48,58.18,28.64,58.4a1.5,1.5,0,0,1-.1,3c-5.4-.17-15,1-19.22,11.24A1.5,1.5,0,0,1,7.93,73.58Z"/><path class="cls-1" d="M76.37,73.58A1.5,1.5,0,0,1,75,72.64C70.81,62.42,61.15,61.21,55.76,61.4A1.49,1.49,0,0,1,54.21,60a1.5,1.5,0,0,1,1.45-1.55c6.17-.23,17.24,1.2,22.1,13.11a1.51,1.51,0,0,1-.83,2A1.55,1.55,0,0,1,76.37,73.58Z"/><path class="cls-1" d="M59.82,38.83a1.46,1.46,0,0,1-.29,0,1.5,1.5,0,0,1-1.18-1.76c.4-2,.95-2.73,3.59-5.36,1.07-1.06,2.46-4,3.15-5.81a13,13,0,0,0-3.7,1.72,1.49,1.49,0,0,1-2.12,0,1.51,1.51,0,0,1,0-2.12c1.14-1.13,6-3.33,7.89-2.81A1.82,1.82,0,0,1,68.46,24c.42,1.72-2.56,8-4.41,9.86-2.5,2.49-2.54,2.67-2.76,3.8A1.5,1.5,0,0,1,59.82,38.83Z"/><path class="cls-1" d="M23.68,38.83a1.5,1.5,0,0,1-1.47-1.21c-.22-1.13-.26-1.31-2.76-3.8C17.6,32,14.61,25.68,15,24a1.82,1.82,0,0,1,1.3-1.29c1.85-.51,6.75,1.68,7.89,2.81a1.51,1.51,0,0,1,0,2.12,1.49,1.49,0,0,1-2.12,0,13.4,13.4,0,0,0-3.7-1.73c.69,1.85,2.08,4.76,3.15,5.82,2.64,2.63,3.19,3.32,3.59,5.36A1.5,1.5,0,0,1,24,38.81,1.46,1.46,0,0,1,23.68,38.83Z"/><path class="cls-1" d="M41.74,58.59c-9.5,0-17.73-8.84-19.57-21a1.51,1.51,0,0,1,1.26-1.71,1.49,1.49,0,0,1,1.71,1.26c1.61,10.71,8.59,18.48,16.6,18.48s15-7.77,16.6-18.48a1.5,1.5,0,1,1,3,.45C59.47,49.75,51.24,58.59,41.74,58.59Z"/><path class="cls-1" d="M36.5,36.16h-4a1.5,1.5,0,0,1,0-3h4a1.5,1.5,0,0,1,0,3Z"/><path class="cls-1" d="M50.5,36.16h-4a1.5,1.5,0,0,1,0-3h4a1.5,1.5,0,0,1,0,3Z"/><path class="cls-1" d="M24,30.4h-.07a1.5,1.5,0,0,1-1.26-.81,19.17,19.17,0,0,1-1.57-13.43,18.71,18.71,0,0,1,5.7-9.08c5.52-4.7,12.42-5.21,15.13-5.21A22.86,22.86,0,0,1,56.65,7.08a18.71,18.71,0,0,1,5.7,9.08,19.15,19.15,0,0,1-1.57,13.43,1.53,1.53,0,0,1-1.26.81,1.52,1.52,0,0,1-1.33-.69,4.59,4.59,0,0,1-.49-1.55,19.24,19.24,0,0,0-2.06-5.78c-2-3-4.28-3.3-5.18-3.3-2.71.05-6.26,4.47-7.29,6a1.5,1.5,0,0,1-2.51,0c-1.07-1.65-4.53-5.95-7.7-6-.89,0-3.2.32-5.16,3.29a19.39,19.39,0,0,0-2.06,5.79,4.59,4.59,0,0,1-.49,1.55A1.5,1.5,0,0,1,24,30.4ZM50.44,16.08c1.41,0,4.94.46,7.7,4.64a13.68,13.68,0,0,1,1.48,3.14,15.22,15.22,0,0,0-.17-6.94,15.62,15.62,0,0,0-4.74-7.56A19.84,19.84,0,0,0,41.92,4.87c-2.38,0-8.43.44-13.19,4.49A15.62,15.62,0,0,0,24,16.92a15.38,15.38,0,0,0-.18,6.94,14.34,14.34,0,0,1,1.48-3.14c2.77-4.18,6.3-4.64,7.69-4.64,3.86.06,7.2,3.47,9,5.66,1.75-2.18,5-5.6,8.5-5.66Z"/><path class="cls-1" d="M45.89,51.49a1.5,1.5,0,0,1-1.47-1.21l-.69-3.39a1.51,1.51,0,0,1,3-.6l.68,3.4a1.51,1.51,0,0,1-1.18,1.77A1.43,1.43,0,0,1,45.89,51.49Z"/><path class="cls-1" d="M37.43,51.49l-.3,0A1.5,1.5,0,0,1,36,49.69l.68-3.4a1.5,1.5,0,0,1,2.94.6l-.68,3.39A1.5,1.5,0,0,1,37.43,51.49Z"/><path class="cls-1" d="M25.89,61.38a1.54,1.54,0,0,1-.84-.26c-11-7.39-24-16.88-24-20.13,0-2.09,4-5.16,11.94-9.12a1.5,1.5,0,0,1,1.34,2.68C10,36.72,5.06,39.73,4.13,41c1.35,2.37,12.56,10.84,22.6,17.61a1.51,1.51,0,0,1-.84,2.75Z"/><path class="cls-1" d="M58.11,61.38a1.51,1.51,0,0,1-.84-2.75c10-6.77,21.25-15.24,22.6-17.61-.93-1.29-5.87-4.3-10.21-6.47A1.5,1.5,0,1,1,71,31.87c7.93,4,11.94,7,11.94,9.12,0,3.25-13,12.74-24,20.13A1.54,1.54,0,0,1,58.11,61.38Z"/><path class="cls-1" d="M45.5,70.16h-8a1.5,1.5,0,0,1-1.5-1.5v-6a1.5,1.5,0,0,1,1.5-1.5h8a1.5,1.5,0,0,1,1.5,1.5v6A1.5,1.5,0,0,1,45.5,70.16Zm-6.5-3h5v-3H39Z"/></g></g></svg>