<svg xmlns="http://www.w3.org/2000/svg" viewBox="0 0 119.82 113.81"><defs><style>.cls-1{fill:#f86464;}.cls-2{fill:#61c4f2;}.cls-3{fill:#263357;}</style></defs><g id="Слой_2" data-name="Слой 2"><g id="icons"><path class="cls-1" d="M112.12,58.81c-2.64-6.71-8-13-9-24,1-2,1.75-2.78,4-3,2.94,2,5.32.24,6.91-1.24,1.8-1.67,3.09-3.76.09-6.76s-8-1.28-11,1a15.27,15.27,0,0,0-6,9s-1,4,1,13,9,19,9,25-4.7,11.14-7.7,11.56c-2.7.38-7.3.44-9.3-6.56H74.29c-1.17,8-6.6,6.94-9.3,6.56-3-.42-7.7-5.56-7.7-11.56s7-16,9-25,1-13,1-13a15.31,15.31,0,0,0-6-9c-3-2.28-8-4-11-1s-1.71,5.09.09,6.76c1.59,1.48,4,3.26,6.91,1.24,2.24.22,3,1,4,3-1,11-6.37,17.29-9,24-3.53,9-7,11-6,22,1.86,5.25,4.36,7.12,9,10,3.84,2.37,14,6,15,7s1,5,1,5H93.12s0-4,1-5,11.16-4.63,15-7c4.64-2.88,7.13-4.75,9-10C119.12,69.81,115.65,67.8,112.12,58.81Z"/><path class="cls-2" d="M110.7,17.11,109.33,8a5.12,5.12,0,0,0-5.85-4.31L105.6,18Z"/><path class="cls-2" d="M41.88,83.78,17.16,87.45a2.46,2.46,0,0,1-2.79-2.07l-10-67A5.12,5.12,0,0,0,.06,24.18L9.78,89.63a5.12,5.12,0,0,0,5.82,4.31l27.32-4.06Z"/><path class="cls-2" d="M19.49,34.49a1.5,1.5,0,0,1-.22-3l22.46-3.34a1.5,1.5,0,0,1,.45,3L19.71,34.48Z"/><path class="cls-2" d="M22.82,57a1.5,1.5,0,0,1-.21-3l22.46-3.34a1.5,1.5,0,0,1,.45,3L23.05,57Z"/><path class="cls-2" d="M21.15,45.73a1.5,1.5,0,0,1-.21-3l15.32-2.28a1.5,1.5,0,0,1,.44,3L21.38,45.71Z"/><path class="cls-3" d="M17.38,89.41A4,4,0,0,1,13.47,86l-10-67.66a4,4,0,0,1,3.33-4.49L46.16,8a8.75,8.75,0,0,1,10,7.38,1.5,1.5,0,0,1-3,.44A5.77,5.77,0,0,0,46.6,11L7.19,16.86a1,1,0,0,0-.63.37,1,1,0,0,0-.17.71L16.44,85.59a1,1,0,0,0,1.08.81L41,82.92a1.5,1.5,0,0,1,.44,3L18,89.37A4,4,0,0,1,17.38,89.41Z"/><path class="cls-3" d="M105,18.57a1.49,1.49,0,0,1-1.48-1.28l-2-13.47A.95.95,0,0,0,100.38,3L61,8.86a5.81,5.81,0,0,0-4.92,5.66,1.5,1.5,0,0,1-3,0,8.71,8.71,0,0,1,7.47-8.6L99.94,0a4,4,0,0,1,4.49,3.33l2,13.48a1.5,1.5,0,0,1-1.26,1.71Z"/><path class="cls-3" d="M70.62,103.81a1.5,1.5,0,0,1-1.5-1.5v-3c0-1.08-2-1.76-5.26-2.77-5.29-1.62-12.53-3.83-17-11.67-5.35-9.37,1.9-22.54,7.73-33.12,2.58-4.69,5-9.13,5.6-12a18.89,18.89,0,0,0,.34-5.24,1.5,1.5,0,1,1,3-.25,21.49,21.49,0,0,1-.38,6.08c-.66,3.31-3.1,7.73-5.92,12.85-5.46,9.92-12.26,22.27-7.74,30.18,3.89,6.81,10.2,8.74,15.28,10.29,4,1.22,7.38,2.27,7.38,5.64v3A1.51,1.51,0,0,1,70.62,103.81Z"/><path class="cls-3" d="M93.62,103.81a1.5,1.5,0,0,1-1.5-1.5v-3c0-3.38,3.51-4.42,7.58-5.63,5.24-1.56,11.75-3.49,15.64-10.3,4.52-7.91-2.28-20.26-7.75-30.18-2.81-5.12-5.25-9.54-5.91-12.85a21.88,21.88,0,0,1-.39-6.08,1.5,1.5,0,1,1,3,.25,18.89,18.89,0,0,0,.34,5.24c.57,2.86,3,7.3,5.6,12,5.83,10.58,13.08,23.75,7.72,33.12-4.48,7.85-11.94,10.07-17.38,11.68-2.92.87-5.44,1.62-5.44,2.76v3A1.51,1.51,0,0,1,93.62,103.81Z"/><path class="cls-3" d="M68,42.73a1.33,1.33,0,0,1-.28,0A1.51,1.51,0,0,1,66.47,41c1.29-6.86-1.23-11-3.56-13.35-3.22-3.18-7.31-4.15-9.06-3.79s-3.6,1.31-3.25,4.1a3.09,3.09,0,0,0,1.69,2.42,3.52,3.52,0,0,0,4.76-1.44,1.5,1.5,0,0,1,2.66,1.4A6.53,6.53,0,0,1,51,33.05a6.12,6.12,0,0,1-3.4-4.78c-.47-3.78,1.7-6.61,5.64-7.41,2.86-.56,8,.85,11.76,4.6,2.85,2.82,5.93,7.89,4.4,16A1.51,1.51,0,0,1,68,42.73Z"/><path class="cls-3" d="M96.85,85a7.56,7.56,0,0,1-6.71-3.91,6,6,0,0,1-.73-3.28h-14a6,6,0,0,1-.73,3.28A7.57,7.57,0,0,1,68,85c-7.14,0-11.4-4.26-11.4-11.39,0-4.15,2.29-10.15,4.72-16.51.86-2.24,1.75-4.57,2.55-6.85a1.5,1.5,0,1,1,2.83,1c-.82,2.33-1.71,4.67-2.58,6.93C61.75,64.26,59.55,70,59.55,73.61c0,6.93,4.57,8.39,8.4,8.39A4.54,4.54,0,0,0,72,79.67a2.45,2.45,0,0,0,.08-2.53A1.52,1.52,0,0,1,72,75.6a1.49,1.49,0,0,1,1.32-.79H91.46a1.49,1.49,0,0,1,1.24,2.33,2.46,2.46,0,0,0,.09,2.53A4.54,4.54,0,0,0,96.85,82c3.83,0,8.4-1.46,8.4-8.39,0-3.59-2.2-9.34-4.52-15.44-.91-2.36-1.84-4.8-2.68-7.22a1.5,1.5,0,0,1,2.83-1c.83,2.38,1.75,4.8,2.65,7.14,2.42,6.36,4.72,12.36,4.72,16.51C108.25,80.74,104,85,96.85,85Z"/><path class="cls-3" d="M96.85,42.73a1.5,1.5,0,0,1-1.47-1.23c-1.53-8.15,1.55-13.22,4.4-16,3.8-3.75,8.89-5.17,11.76-4.6,3.94.8,6.11,3.63,5.64,7.41a6.14,6.14,0,0,1-3.4,4.78,6.53,6.53,0,0,1-8.69-2.76,1.5,1.5,0,0,1,2.65-1.4,3.53,3.53,0,0,0,4.77,1.44,3.09,3.09,0,0,0,1.69-2.42c.34-2.79-1.58-3.77-3.25-4.1s-5.84.61-9.06,3.79C99.56,29.91,97,34.09,98.33,41a1.51,1.51,0,0,1-1.2,1.75Z"/><path class="cls-1" d="M89.62,71.81a1.5,1.5,0,0,1-1.5-1.5v-21a1.5,1.5,0,0,1,3,0v21A1.51,1.51,0,0,1,89.62,71.81Z"/><path class="cls-1" d="M89.62,39.81a1.5,1.5,0,0,1-1.5-1.5v-10a1.5,1.5,0,0,1,3,0v10A1.51,1.51,0,0,1,89.62,39.81Z"/><path class="cls-1" d="M82.62,71.81a1.5,1.5,0,0,1-1.5-1.5v-21a1.5,1.5,0,0,1,3,0v21A1.51,1.51,0,0,1,82.62,71.81Z"/><path class="cls-1" d="M82.62,39.81a1.5,1.5,0,0,1-1.5-1.5v-10a1.5,1.5,0,0,1,3,0v10A1.51,1.51,0,0,1,82.62,39.81Z"/><path class="cls-1" d="M75.62,71.81a1.5,1.5,0,0,1-1.5-1.5v-21a1.5,1.5,0,0,1,3,0v21A1.51,1.51,0,0,1,75.62,71.81Z"/><path class="cls-1" d="M75.62,39.81a1.5,1.5,0,0,1-1.5-1.5v-10a1.5,1.5,0,0,1,3,0v10A1.51,1.51,0,0,1,75.62,39.81Z"/><path class="cls-3" d="M108.62,44.81h-52a1.5,1.5,0,0,1,0-3h52a1.5,1.5,0,0,1,0,3Z"/><path class="cls-3" d="M116.62,113.81h-69a1.5,1.5,0,0,1,0-3h69a1.5,1.5,0,0,1,0,3Z"/><path class="cls-3" d="M108.62,113.81h-51a1.5,1.5,0,0,1-1.5-1.5V110.8a9,9,0,0,1,9-9h36a9,9,0,0,1,9,9v1.51A1.51,1.51,0,0,1,108.62,113.81Zm-49.5-3h48a6,6,0,0,0-6-6h-36a6,6,0,0,0-6,6Z"/></g></g></svg>