<svg xmlns="http://www.w3.org/2000/svg" viewBox="0 0 121.44 120.42"><defs><style>.cls-1{fill:#61c4f2;}.cls-2{fill:#f86464;}.cls-3{fill:#263357;}</style></defs><g id="Слой_2" data-name="Слой 2"><g id="icons"><path class="cls-1" d="M71.44,100.91a9.76,9.76,0,0,1-1-3.41A2.4,2.4,0,0,1,72.9,95s-4.38.42-5.25-2.1,2.62-3,2.62-3a2.53,2.53,0,1,1,0-5h6.13V74.49c-10.8,2.85-22.06,6.14-29.64,5.84-1.65,1.66-8.24,1.66-11.53,0C27,80.68,16.92,78,6.44,74.49V84.91H12a2.51,2.51,0,0,1,2.48,1.87,2.47,2.47,0,0,1-2.3,3.13s3.29.42,2.47,2.92-4.94,2.08-4.94,2.08a2.36,2.36,0,0,1,2.31,2.8,2.57,2.57,0,0,1-2.6,2.2h-4v10.46a73.1,73.1,0,0,0,31.67,7.54c2.19,1.18,5.83,1.67,8.33,0h17v-9h9Z"/><polygon class="cls-2" points="117.41 99.91 72.44 99.91 72.44 108.91 117.44 108.91 117.41 99.91"/><path class="cls-3" d="M25.94,47.91a1.73,1.73,0,0,1-.49-.08,1.5,1.5,0,0,1-.92-1.91c1.22-3.55,5.08-10.39,8.57-13.47a1.5,1.5,0,1,1,2,2.25c-3.08,2.71-6.63,9-7.73,12.2A1.49,1.49,0,0,1,25.94,47.91Z"/><path class="cls-3" d="M57,47.91l-.23,0-.27,0c-3-.45-9.22-1.4-14.69-5.17-4-2.79-8.26-7.54-9.8-11.07a1.5,1.5,0,0,1,2.75-1.2c1.16,2.65,4.75,7,8.75,9.8,4.91,3.38,10.46,4.22,13.44,4.68l.27,0a1.5,1.5,0,0,1-.22,3Z"/><path class="cls-3" d="M62.32,66a1.5,1.5,0,0,1-1.23-2.36,13.89,13.89,0,0,0,2.25-6,16.21,16.21,0,0,0-.85-6,13.88,13.88,0,0,1-.77-5.45c.73-8.61-8.58-17.41-8.67-17.5-6.21-6.2-12.31-5.51-14.64-4.93-2.63.65-4,1.92-4.19,2.45a1.51,1.51,0,0,1-1.53,1.06c-2.1-.15-4.78,1.31-7,3.77a17.93,17.93,0,0,0-4.32,14.69,1.42,1.42,0,0,1,.12.46,14.1,14.1,0,0,1-.77,5.45,16,16,0,0,0-.85,6,13.89,13.89,0,0,0,2.25,6,1.5,1.5,0,0,1-2.46,1.72,16.74,16.74,0,0,1-2.79-7.56,18.85,18.85,0,0,1,1-7,12.13,12.13,0,0,0,.69-4,1.17,1.17,0,0,1-.06-.2,20.91,20.91,0,0,1,5-17.61c2.56-2.83,5.63-4.55,8.41-4.75a10,10,0,0,1,5.81-3.43c2.84-.71,10.2-1.56,17.45,5.69.39.36,10.43,9.86,9.57,19.91a11.37,11.37,0,0,0,.67,4.35,19.06,19.06,0,0,1,1,7,17,17,0,0,1-2.79,7.56A1.52,1.52,0,0,1,62.32,66Z"/><path class="cls-3" d="M17,74.1a1.5,1.5,0,0,1-1-2.6A25.61,25.61,0,0,1,29,65l.16,0,.23,0a1.5,1.5,0,1,1,.42,3l-.36.06A22.57,22.57,0,0,0,18,73.7,1.5,1.5,0,0,1,17,74.1Z"/><path class="cls-3" d="M65.1,74.1a1.48,1.48,0,0,1-1-.4A22.6,22.6,0,0,0,52.57,68l-.21,0A1.54,1.54,0,0,1,51,66.22a1.47,1.47,0,0,1,1.66-1.28l.22,0H53A25.66,25.66,0,0,1,66.12,71.5a1.5,1.5,0,0,1-1,2.6Z"/><path class="cls-3" d="M41,72.36A19.14,19.14,0,0,1,28.6,67.58a1.5,1.5,0,0,1,1.95-2.29,15.59,15.59,0,0,0,21,0,1.5,1.5,0,0,1,1.94,2.29A19.12,19.12,0,0,1,41,72.36Z"/><path class="cls-3" d="M36.94,119.84h-.06a95.41,95.41,0,0,1-31.5-6.78,1.51,1.51,0,0,1-.94-1.39v-5.26a1.5,1.5,0,0,1,3,0v4.24a92.29,92.29,0,0,0,28,6.11V82.3a95.39,95.39,0,0,1-28-5.91v2a1.5,1.5,0,0,1-3,0V74.2A1.49,1.49,0,0,1,6.5,72.81,92.64,92.64,0,0,0,37,79.38a1.49,1.49,0,0,1,1.43,1.5v37.46a1.48,1.48,0,0,1-1.5,1.5Z"/><path class="cls-3" d="M44.94,119.84a1.5,1.5,0,0,1-.06-3,94.94,94.94,0,0,0,11.45-1.21,1.5,1.5,0,1,1,.5,3A95.09,95.09,0,0,1,45,119.84Z"/><path class="cls-3" d="M44.94,118.91a1.5,1.5,0,0,1-1.5-1.5V80.88a1.51,1.51,0,0,1,1.44-1.5,92.22,92.22,0,0,0,30.5-6.57,1.5,1.5,0,0,1,2.06,1.39v5.21a1.5,1.5,0,0,1-3,0v-3a95.2,95.2,0,0,1-28,5.92v35.1A1.5,1.5,0,0,1,44.94,118.91Z"/><path class="cls-3" d="M40.94,120.42a7.16,7.16,0,0,1-5.06-2,1.51,1.51,0,0,1,0-2.12,1.49,1.49,0,0,1,2.12,0,4.64,4.64,0,0,0,5.88,0A1.5,1.5,0,0,1,46,118.47,7.16,7.16,0,0,1,40.94,120.42Z"/><path class="cls-3" d="M40.94,84.42a7.16,7.16,0,0,1-5.06-2,1.51,1.51,0,0,1,0-2.12,1.49,1.49,0,0,1,2.12,0,4.64,4.64,0,0,0,5.88,0A1.5,1.5,0,0,1,46,82.47,7.16,7.16,0,0,1,40.94,84.42Z"/><path class="cls-3" d="M70,100.81a1.48,1.48,0,0,1-1.15-.54,4,4,0,0,1-.94-2.57,3.8,3.8,0,0,1,3.83-3.94,1.5,1.5,0,0,1,0,3,.84.84,0,0,0-.83.94,1,1,0,0,0,.24.65,1.5,1.5,0,0,1-.18,2.11A1.54,1.54,0,0,1,70,100.81Z"/><path class="cls-3" d="M78.6,101a1.5,1.5,0,0,1-1-2.61,1.37,1.37,0,0,0,.43-.83L78.82,91a6.16,6.16,0,0,0-.25-2.66,2.05,2.05,0,0,0-2-1.44H69.33a1,1,0,0,0-1,1,.9.9,0,0,0,.87,1,1.5,1.5,0,0,1,0,3,3.89,3.89,0,0,1-3.87-4,4,4,0,0,1,4-4H76.6a5.06,5.06,0,0,1,4.84,3.54,9.31,9.31,0,0,1,.36,3.92L81,97.94a4.34,4.34,0,0,1-1.4,2.7A1.51,1.51,0,0,1,78.6,101Z"/><path class="cls-3" d="M72.94,96.91l-3,0c-2.33,0-4.74-1.49-4.74-4a3.79,3.79,0,0,1,4-4h3.72a1.5,1.5,0,0,1,0,3H69.22c-.83,0-1,.37-1,1s1,1,1.75,1l3,0a1.5,1.5,0,0,1,0,3Z"/><path class="cls-3" d="M10.07,101.91H5.18A4.34,4.34,0,0,1,.87,98.09l-.8-6.66a9.26,9.26,0,0,1,.37-4A5.06,5.06,0,0,1,5.3,83.91h7.35a4,4,0,0,1,4,4,3.92,3.92,0,0,1-3.9,4,1.5,1.5,0,0,1,0-3,.93.93,0,0,0,.9-1,1,1,0,0,0-1-1H5.3a2.08,2.08,0,0,0-2,1.47,6.28,6.28,0,0,0-.25,2.69l.8,6.66a1.34,1.34,0,0,0,1.33,1.18h4.89a1.05,1.05,0,0,0,1-1,.86.86,0,0,0-.85-1,1.5,1.5,0,0,1,0-3,3.82,3.82,0,0,1,3.85,4A4,4,0,0,1,10.07,101.91Z"/><path class="cls-3" d="M7.94,96.91a1.5,1.5,0,1,1,0-3l3.2,0c.72,0,1.75-.35,1.75-1s-.17-1-1-1H7.94a1.5,1.5,0,1,1,0-3h4a3.79,3.79,0,0,1,4,4c0,2.49-2.41,4-4.74,4l-3.2,0Z"/><path class="cls-3" d="M106.94,119.91h-45a1.5,1.5,0,0,1-1.5-1.5v-9a1.5,1.5,0,0,1,1.5-1.5h45a1.5,1.5,0,0,1,1.5,1.5v9A1.5,1.5,0,0,1,106.94,119.91Zm-43.5-3h42v-6h-42Z"/><path class="cls-3" d="M116.94,110.91h-45a1.5,1.5,0,0,1-1.5-1.5v-9a1.5,1.5,0,0,1,1.5-1.5h45a1.5,1.5,0,0,1,1.5,1.49l0,9a1.49,1.49,0,0,1-1.5,1.51Zm-43.5-3h42l0-6h-42Z"/><path class="cls-3" d="M79.94,110.91a1.5,1.5,0,0,1-1.5-1.5v-8a1.5,1.5,0,0,1,3,0v8A1.5,1.5,0,0,1,79.94,110.91Z"/><path class="cls-3" d="M85.94,110.91a1.5,1.5,0,0,1-1.5-1.5v-8a1.5,1.5,0,0,1,3,0v8A1.5,1.5,0,0,1,85.94,110.91Z"/><path class="cls-3" d="M92.94,119.91a1.5,1.5,0,0,1-1.5-1.5v-7a1.5,1.5,0,0,1,3,0v7A1.5,1.5,0,0,1,92.94,119.91Z"/><path class="cls-3" d="M98.94,119.91a1.5,1.5,0,0,1-1.5-1.5v-7a1.5,1.5,0,0,1,3,0v7A1.5,1.5,0,0,1,98.94,119.91Z"/><path class="cls-3" d="M41.23,65.51c-8.33,0-15.54-7.73-17.15-18.39a1.5,1.5,0,0,1,3-.44c1.38,9.17,7.34,15.83,14.18,15.83S54,55.85,55.41,46.68a1.5,1.5,0,0,1,3,.44C56.77,57.78,49.56,65.51,41.23,65.51Z"/><path class="cls-3" d="M36.94,46.91h-4a1.5,1.5,0,1,1,0-3h4a1.5,1.5,0,0,1,0,3Z"/><path class="cls-3" d="M49.94,46.91h-4a1.5,1.5,0,0,1,0-3h4a1.5,1.5,0,0,1,0,3Z"/><path class="cls-3" d="M41.23,58.27a8.36,8.36,0,0,1-5-1.82A1.5,1.5,0,1,1,38,54.06a4.89,4.89,0,0,0,6.42,0,1.5,1.5,0,1,1,1.81,2.39A8.36,8.36,0,0,1,41.23,58.27Z"/><path class="cls-2" d="M98.4,39.75c0-.17,0-.34,0-.5a8.5,8.5,0,0,0-7.59-7.84c-2.7-.26-5.17,1.36-6.89,3.11-1.7-1.76-4.16-3.4-6.86-3.16a8.48,8.48,0,0,0-7.61,7.34,9.06,9.06,0,0,0-.07,1A8,8,0,0,0,72.45,46l11.37,9.09,11.46-9A8,8,0,0,0,98.4,39.75Z"/><path class="cls-2" d="M109.88,66.07c0-.1,0-.21,0-.31a5.28,5.28,0,0,0-4.71-4.86,5.54,5.54,0,0,0-4.27,1.93,5.55,5.55,0,0,0-4.26-2,5.28,5.28,0,0,0-4.72,4.55c0,.22,0,.43,0,.64A5,5,0,0,0,93.79,70l7,5.64,7.1-5.61A5,5,0,0,0,109.88,66.07Z"/><path class="cls-1" d="M106.81,97a1.49,1.49,0,0,1-1.15-2.45c.45-.55.89-1.11,1.33-1.68a1.5,1.5,0,1,1,2.38,1.82c-.45.6-.92,1.19-1.4,1.77A1.49,1.49,0,0,1,106.81,97Zm5.43-7.8a1.56,1.56,0,0,1-.75-.2,1.51,1.51,0,0,1-.55-2c.36-.62.71-1.25,1-1.88a1.5,1.5,0,1,1,2.65,1.41c-.35.66-.72,1.32-1.09,2A1.5,1.5,0,0,1,112.24,89.18Zm4.07-8.6a1.6,1.6,0,0,1-.53-.09,1.51,1.51,0,0,1-.88-1.94c.25-.66.49-1.33.71-2a1.5,1.5,0,0,1,2.85.94c-.23.72-.49,1.43-.75,2.13A1.51,1.51,0,0,1,116.31,80.58Zm2.58-9.15-.29,0a1.49,1.49,0,0,1-1.18-1.75c.13-.7.25-1.4.36-2.11a1.5,1.5,0,0,1,3,.46q-.18,1.11-.39,2.22A1.51,1.51,0,0,1,118.89,71.43ZM5.75,70.09a1.5,1.5,0,0,1-1.47-1.25c-.1-.55-.18-1.09-.26-1.64A1.52,1.52,0,0,1,5.3,65.5,1.5,1.5,0,0,1,7,66.78l.24,1.56A1.5,1.5,0,0,1,6,70.07ZM119.92,62a1.51,1.51,0,0,1-1.5-1.54c0-.51,0-1,0-1.53V58.3a1.5,1.5,0,0,1,3,0v.64c0,.54,0,1.08,0,1.61A1.5,1.5,0,0,1,119.92,62ZM5,61.19a1.5,1.5,0,0,1-1.5-1.48v-.8c0-.48,0-1,0-1.45A1.53,1.53,0,0,1,5,56a1.5,1.5,0,0,1,1.46,1.54c0,.46,0,.92,0,1.38v.77A1.5,1.5,0,0,1,5,61.19Zm114.45-8.7a1.49,1.49,0,0,1-1.48-1.29c-.1-.71-.21-1.42-.34-2.12a1.5,1.5,0,1,1,3-.52c.13.74.25,1.48.35,2.23a1.51,1.51,0,0,1-1.28,1.69ZM5.6,51.71l-.23,0A1.5,1.5,0,0,1,4.11,50q.18-1.11.39-2.22a1.5,1.5,0,0,1,2.94.56c-.13.7-.25,1.41-.36,2.11A1.49,1.49,0,0,1,5.6,51.71Zm111.73-8.49a1.49,1.49,0,0,1-1.43-1.06c-.22-.68-.44-1.36-.68-2a1.5,1.5,0,1,1,2.82-1c.26.71.5,1.43.72,2.15a1.5,1.5,0,0,1-1,1.88A1.76,1.76,0,0,1,117.33,43.22ZM7.8,42.46a1.58,1.58,0,0,1-.47-.07,1.52,1.52,0,0,1-1-1.9q.36-1.07.75-2.13a1.5,1.5,0,1,1,2.81,1c-.25.67-.48,1.34-.7,2A1.51,1.51,0,0,1,7.8,42.46ZM113.74,34.4a1.51,1.51,0,0,1-1.34-.82c-.32-.64-.66-1.27-1-1.89A1.5,1.5,0,0,1,114,30.23c.36.66.72,1.32,1.06,2a1.5,1.5,0,0,1-1.34,2.18ZM11.51,33.71a1.46,1.46,0,0,1-.7-.18,1.49,1.49,0,0,1-.63-2c.35-.67.71-1.32,1.08-2A1.5,1.5,0,0,1,13.86,31c-.35.62-.69,1.24-1,1.87A1.5,1.5,0,0,1,11.51,33.71Zm97.24-7.4a1.49,1.49,0,0,1-1.21-.61c-.43-.58-.86-1.14-1.31-1.7a1.5,1.5,0,1,1,2.35-1.87c.47.59.93,1.18,1.37,1.79a1.5,1.5,0,0,1-1.2,2.39ZM16.6,25.69a1.5,1.5,0,0,1-1.19-2.41c.45-.59.92-1.18,1.39-1.76a1.5,1.5,0,1,1,2.32,1.9q-.68.82-1.32,1.68A1.5,1.5,0,0,1,16.6,25.69Zm85.89-6.54a1.45,1.45,0,0,1-1-.43c-.52-.49-1-1-1.57-1.46a1.5,1.5,0,0,1,2-2.23c.56.5,1.11,1,1.65,1.54a1.51,1.51,0,0,1,0,2.12A1.53,1.53,0,0,1,102.49,19.15ZM23,18.62a1.5,1.5,0,0,1-1-2.59c.55-.52,1.1-1,1.67-1.52a1.5,1.5,0,0,1,2,2.26c-.53.46-1.06.95-1.58,1.43A1.48,1.48,0,0,1,23,18.62Zm72.2-5.51a1.48,1.48,0,0,1-.85-.27c-.59-.4-1.18-.8-1.78-1.18a1.5,1.5,0,1,1,1.61-2.53c.63.4,1.26.82,1.87,1.25a1.48,1.48,0,0,1,.38,2.08A1.5,1.5,0,0,1,95.15,13.11Zm-64.78-.43a1.5,1.5,0,0,1-.84-2.75c.63-.42,1.26-.83,1.9-1.22A1.5,1.5,0,1,1,33,11.26c-.61.37-1.21.76-1.8,1.16A1.51,1.51,0,0,1,30.37,12.68ZM86.92,8.36a1.48,1.48,0,0,1-.64-.14q-1-.45-2-.87a1.5,1.5,0,1,1,1.18-2.76c.69.29,1.37.6,2,.92a1.5,1.5,0,0,1-.64,2.85ZM38.68,8a1.5,1.5,0,0,1-.62-2.87c.68-.31,1.37-.61,2.07-.89a1.5,1.5,0,1,1,1.14,2.77c-.67.27-1.32.56-2,.85A1.55,1.55,0,0,1,38.68,8ZM78,5a1.48,1.48,0,0,1-.41,0q-1-.3-2.07-.54a1.5,1.5,0,0,1,.7-2.92c.74.18,1.46.37,2.19.57A1.5,1.5,0,0,1,78,5ZM47.64,4.83a1.5,1.5,0,0,1-.39-2.95c.73-.19,1.46-.37,2.19-.53a1.5,1.5,0,0,1,.66,2.92c-.7.16-1.39.33-2.08.51A1.28,1.28,0,0,1,47.64,4.83Zm21-1.59h-.16L66.39,3A1.5,1.5,0,0,1,65,1.44,1.51,1.51,0,0,1,66.61.05c.75.06,1.49.12,2.24.2a1.5,1.5,0,0,1-.16,3ZM57,3.16a1.5,1.5,0,0,1-.14-3C57.6.1,58.35,0,59.1,0a1.5,1.5,0,0,1,.17,3c-.72,0-1.43.09-2.13.16Z"/></g></g></svg>