<svg xmlns="http://www.w3.org/2000/svg" viewBox="0 0 124.83 116.94"><defs><style>.cls-1{fill:#f86464;}.cls-2{fill:#61c4f2;}.cls-3{fill:#263357;}</style></defs><g id="Слой_2" data-name="Слой 2"><g id="icons"><path class="cls-1" d="M111,34.94A52.69,52.69,0,0,0,101.49,30l1.59-6.19L65,14.07l-1.63,6.34A69.84,69.84,0,0,0,52,19.94c-10.68.58-17,4-17,4a40.29,40.29,0,0,0,12,13c7.25,5,18.31,8.46,29.07,11.28,9.79,2.56,19.52,5.18,27.93,4.72a55.56,55.56,0,0,0,20-5A48.93,48.93,0,0,0,111,34.94ZM63,32a5,5,0,1,1-3.57-6.1A5,5,0,0,1,63,32Zm20,5a5,5,0,1,1-3.57-6.1A5,5,0,0,1,83,37Zm20,5a5,5,0,1,1-3.57-6.1A5,5,0,0,1,103,42Z"/><path class="cls-2" d="M107,58.94h-5v47.62a2.39,2.39,0,0,1-2.38,2.38H59a7,7,0,0,1-5.53-2.7,7,7,0,0,1-5.53,2.7H7.38A2.39,2.39,0,0,1,5,106.56V40.94a5,5,0,0,0-5,5V110a5,5,0,0,0,5,5H48.1a2.68,2.68,0,0,0,2.59,2h5.62a2.68,2.68,0,0,0,2.59-2H102a5,5,0,0,0,5-5Z"/><path class="cls-2" d="M40.5,61.94h-22a1.5,1.5,0,0,1,0-3h22a1.5,1.5,0,0,1,0,3Z"/><path class="cls-2" d="M40.5,83.94h-22a1.5,1.5,0,0,1,0-3h22a1.5,1.5,0,0,1,0,3Z"/><path class="cls-2" d="M33.5,72.94h-15a1.5,1.5,0,0,1,0-3h15a1.5,1.5,0,0,1,0,3Z"/><path class="cls-3" d="M46.47,110.94H7.88A3.88,3.88,0,0,1,4,107.06V40.82a3.88,3.88,0,0,1,3.88-3.88H40.5a1.5,1.5,0,0,1,0,3H7.88a.87.87,0,0,0-.88.88v66.24a.88.88,0,0,0,.88.88H46.47A5.54,5.54,0,0,0,52,102.41V74.3a1.5,1.5,0,0,1,3,0v28.11A8.54,8.54,0,0,1,46.47,110.94Z"/><path class="cls-3" d="M99.12,110.94H60.53A8.54,8.54,0,0,1,52,102.41a1.5,1.5,0,0,1,3,0,5.54,5.54,0,0,0,5.53,5.53H99.12a.88.88,0,0,0,.88-.88V59.44a1.5,1.5,0,0,1,3,0v47.62A3.88,3.88,0,0,1,99.12,110.94Z"/><path class="cls-1" d="M23.76,17.84l.89,1.5a4.79,4.79,0,0,0,2,1.85l1.56.79-1.51.88a4.92,4.92,0,0,0-1.84,2L24,26.39l-.88-1.51a4.79,4.79,0,0,0-2-1.84l-1.56-.79,1.51-.89a4.76,4.76,0,0,0,1.84-2Z"/><path class="cls-1" d="M82.62,82.6l1.75,3.14a9.81,9.81,0,0,0,3.94,3.88l3.16,1.7-3.13,1.75A9.77,9.77,0,0,0,84.45,97l-1.7,3.16L81,97a9.86,9.86,0,0,0-4-3.89l-3.16-1.7L77,89.71a9.9,9.9,0,0,0,3.88-3.95Z"/><path class="cls-1" d="M47.64,0l1.27,2.28a7.15,7.15,0,0,0,2.86,2.83l2.3,1.23L51.79,7.61A7.21,7.21,0,0,0,49,10.48l-1.24,2.3-1.27-2.29A7.18,7.18,0,0,0,43.6,7.67L41.3,6.44l2.28-1.27A7.08,7.08,0,0,0,46.4,2.3Z"/><path class="cls-3" d="M53,30.62a1.73,1.73,0,0,1-.38-.05L34.42,25.82a1.48,1.48,0,0,1-1.11-1.28,1.5,1.5,0,0,1,.81-1.5c9.25-4.79,21.57-6.22,31.37-3.66a1.5,1.5,0,1,1-.76,2.9A43.41,43.41,0,0,0,39.31,24l14,3.67A1.5,1.5,0,0,1,53,30.62Z"/><path class="cls-3" d="M72.74,35.79a1.2,1.2,0,0,1-.38,0l-9.48-2.47a1.5,1.5,0,0,1,.76-2.91l9.48,2.48a1.5,1.5,0,0,1-.38,2.95Z"/><path class="cls-3" d="M92.83,41.05a1.73,1.73,0,0,1-.38,0l-9.36-2.45a1.5,1.5,0,1,1,.76-2.9l9.36,2.44a1.51,1.51,0,0,1-.38,3Z"/><path class="cls-3" d="M123.33,49A1.28,1.28,0,0,1,123,49l-20-5.22a1.5,1.5,0,0,1,.76-2.91L119.58,45A43.45,43.45,0,0,0,98.26,31.05a1.5,1.5,0,1,1,.76-2.9c9.8,2.56,19.83,9.84,25.56,18.55a1.49,1.49,0,0,1,0,1.7A1.52,1.52,0,0,1,123.33,49Z"/><path class="cls-3" d="M98.2,54.23a62.82,62.82,0,0,1-7.11-.38,1.5,1.5,0,1,1,.34-3c9,1,23-.15,31.13-4.37a1.5,1.5,0,0,1,1.38,2.66C117.13,52.69,106.94,54.23,98.2,54.23Z"/><path class="cls-3" d="M60.52,45.83a1.51,1.51,0,0,1-.58-.12C51,41.94,39,33.8,33.59,25.54a1.5,1.5,0,1,1,2.5-1.65c5.06,7.68,16.66,15.55,25,19a1.5,1.5,0,0,1-.59,2.89Z"/><path class="cls-3" d="M84.55,60.47a1.58,1.58,0,0,1-.38,0L61.66,54.54a1.52,1.52,0,0,1-1.1-1.21l-1.44-8.71A1.51,1.51,0,0,1,61,42.92l30.45,8a1.48,1.48,0,0,1,1.06,1,1.52,1.52,0,0,1-.37,1.45L85.62,60A1.51,1.51,0,0,1,84.55,60.47ZM63.36,51.88,84.08,57.3l4.09-4.17L62.46,46.41Z"/><path class="cls-3" d="M100.91,31.67a1.73,1.73,0,0,1-.38-.05l-5-1.3a1.5,1.5,0,0,1,.76-2.91l3.55.93,1.06-3.8L65.76,15.35l-1.06,3.8,24.77,6.47a1.5,1.5,0,0,1-.76,2.91L62.47,21.67a1.53,1.53,0,0,1-.92-.71,1.49,1.49,0,0,1-.14-1.15l1.85-6.69a1.5,1.5,0,0,1,1.83-1l38.06,10a1.53,1.53,0,0,1,.92.71,1.49,1.49,0,0,1,.14,1.15l-1.85,6.69A1.52,1.52,0,0,1,100.91,31.67Z"/><path class="cls-3" d="M101,23.23a1.28,1.28,0,0,1-.38-.05,1.5,1.5,0,0,1-1.07-1.83,12.91,12.91,0,0,0-2-10.61A17.79,17.79,0,0,0,75.42,5a12.91,12.91,0,0,0-7,8.27,1.5,1.5,0,0,1-2.9-.76,15.9,15.9,0,0,1,8.5-10.2A20.83,20.83,0,0,1,100,9.06a15.91,15.91,0,0,1,2.42,13.05A1.48,1.48,0,0,1,101,23.23Z"/><path class="cls-3" d="M65,86.78a1.73,1.73,0,0,1-.38,0A1.5,1.5,0,0,1,63.5,84.9l5.84-22.34a1.5,1.5,0,0,1,2.91.76L66.4,85.66A1.5,1.5,0,0,1,65,86.78Z"/><path class="cls-3" d="M80.39,76.94a1.5,1.5,0,0,1-1.5-1.52l.11-11a1.5,1.5,0,0,1,3,0l-.11,11A1.5,1.5,0,0,1,80.39,76.94Z"/><path class="cls-3" d="M56.92,70.2a1.39,1.39,0,0,1-.71-.18,1.49,1.49,0,0,1-.6-2l5.08-9.28a1.5,1.5,0,1,1,2.63,1.44l-5.08,9.27A1.5,1.5,0,0,1,56.92,70.2Z"/><path class="cls-3" d="M58.12,36.72a6.1,6.1,0,0,1-1.52-.2,6,6,0,1,1,3-11.61,6,6,0,0,1,1.52,11A6,6,0,0,1,58.12,36.72Zm0-9A3,3,0,0,0,55.21,30a3,3,0,0,0,2.15,3.66,3,3,0,0,0,2.27-.31A3,3,0,0,0,61,31.48a3,3,0,0,0-2.15-3.66A2.76,2.76,0,0,0,58.12,27.72Z"/><path class="cls-3" d="M78.12,41.72a6.1,6.1,0,0,1-1.52-.2,6,6,0,0,1-4.29-7.32,6,6,0,1,1,5.81,7.52Zm0-9A3,3,0,0,0,75.21,35a3,3,0,0,0,2.15,3.66,3,3,0,0,0,2.27-.31A3,3,0,0,0,81,36.48a3,3,0,0,0-2.15-3.66A2.76,2.76,0,0,0,78.12,32.72Z"/><path class="cls-3" d="M98.12,46.72a6.1,6.1,0,0,1-1.52-.2,6,6,0,1,1,3-11.61,6,6,0,0,1,1.52,11A6,6,0,0,1,98.12,46.72Zm0-9A3,3,0,0,0,95.21,40a3,3,0,0,0,2.15,3.66,3,3,0,0,0,2.27-.31A3,3,0,0,0,101,41.48a3,3,0,0,0-2.15-3.66A2.76,2.76,0,0,0,98.12,37.72Z"/><path class="cls-2" d="M75.32,12.16a1.47,1.47,0,0,1-1.09-.48,1.5,1.5,0,0,1,.07-2.12,16,16,0,0,1,8.66-4,1.5,1.5,0,0,1,.41,3,12.88,12.88,0,0,0-7,3.19A1.51,1.51,0,0,1,75.32,12.16Z"/></g></g></svg>