<svg xmlns="http://www.w3.org/2000/svg" viewBox="0 0 117 113"><defs><style>.cls-1{fill:#61c4f2;}.cls-2{fill:#f86464;}.cls-3{fill:#263357;}.cls-4{fill:#fff;}</style></defs><g id="Слой_2" data-name="Слой 2"><g id="icons"><path class="cls-1" d="M113.5,3.5s-12.92,9-19,9c-7,0-7-11-7-11s-4.68,8-11,8c-5,0-10-6-10-6s1,8-8,9c-6,.67-14-3-14-3s7,7.18,5,15c-1,4-10,8-12,9,1,0,14,2,13,8s-4,17-4,17,14-10,21-9c5.77.82,12,8,12,8s1-8,9-10c5.22-1.31,16,6,16,6s-5-12-3-15,14-5,14-5-10-3-11-9C103.61,19.19,113.5,3.5,113.5,3.5Z"/><path class="cls-2" d="M116,40h-5v62.62a2.39,2.39,0,0,1-2.38,2.38H64a7,7,0,0,1-5.53-2.7A7,7,0,0,1,53,105H7.38A2.39,2.39,0,0,1,5,102.62V36a5,5,0,0,0-5,5V106a5,5,0,0,0,5,5H53.1a2.68,2.68,0,0,0,2.59,2h5.62a2.68,2.68,0,0,0,2.59-2H111a5,5,0,0,0,5-5Z"/><path class="cls-3" d="M54.71,107.08c-.49,0-1,0-1.5,0s-1.14,0-1.74,0H7.88A3.88,3.88,0,0,1,4,103.12V35.88A3.88,3.88,0,0,1,7.88,32H30.5a1.5,1.5,0,0,1,0,3H7.88a.87.87,0,0,0-.88.88v67.24a.88.88,0,0,0,.88.88H51.47c.64,0,1.26,0,1.85,0,1.45,0,3,.11,3.39-.31a1.92,1.92,0,0,0,.29-1.26,1.5,1.5,0,0,1,3,0,4.49,4.49,0,0,1-1.21,3.41A5.59,5.59,0,0,1,54.71,107.08Z"/><path class="cls-3" d="M62.28,107.08a5.58,5.58,0,0,1-4.07-1.2A4.49,4.49,0,0,1,57,102.47v-42a1.5,1.5,0,0,1,3,0v42a1.92,1.92,0,0,0,.29,1.26c.44.42,1.94.36,3.39.31.59,0,1.21,0,1.85,0h42.59a.88.88,0,0,0,.88-.88V40.5a1.5,1.5,0,0,1,3,0v62.62a3.88,3.88,0,0,1-3.88,3.88H65.53c-.6,0-1.18,0-1.74,0S62.78,107.08,62.28,107.08Z"/><path class="cls-3" d="M22.5,105a1.5,1.5,0,0,1-1.5-1.5v-69a1.5,1.5,0,0,1,3,0v69A1.5,1.5,0,0,1,22.5,105Z"/><path class="cls-3" d="M49.5,70h-26a1.5,1.5,0,0,1,0-3h26a1.5,1.5,0,0,1,0,3Z"/><path class="cls-3" d="M46.5,60a1.5,1.5,0,0,1-1.45-1.9c0-.11,3-11,4-16.85a2.39,2.39,0,0,0-.6-2C46.06,36.37,38.62,35,37.48,35a1.53,1.53,0,0,1-1.43-1.18,1.5,1.5,0,0,1,.78-1.66c.18-.1.43-.21.71-.35,6.48-3.13,10-5.71,10.5-7.68,1.73-6.9-4.56-13.52-4.62-13.59a1.5,1.5,0,0,1,1.71-2.4c.07,0,7.66,3.49,13.2,2.87a7.48,7.48,0,0,0,5.33-2.54A7.23,7.23,0,0,0,65,3.69a1.5,1.5,0,0,1,2.64-1.15C68.92,4.06,73,8,76.5,8,81,8,85,2.76,86.21.74A1.5,1.5,0,0,1,89,1.5c0,.09.08,9.5,5.5,9.5,4.6,0,14.66-6.3,18.14-8.73a1.5,1.5,0,0,1,2.13,2c-3.71,5.88-9.37,16.49-8.79,20,.69,4.17,7.42,7.05,10,7.81a1.5,1.5,0,0,1-.18,2.92c-5.47.91-12,2.83-13,4.35s.87,8.15,3.13,13.59a1.5,1.5,0,0,1-2.22,1.82c-4-2.68-11.47-6.62-14.8-5.79C81.94,50.68,81,57.61,81,57.69a1.5,1.5,0,0,1-2.62.79c-.06-.07-5.94-6.76-11.08-7.5S51.13,57,47.37,59.72A1.46,1.46,0,0,1,46.5,60ZM42.14,32.84c3,.78,6.6,2.15,8.52,4.42A5.4,5.4,0,0,1,52,41.75c-.64,3.81-2,9.53-3,13.3,4.76-3,13.33-7.82,18.75-7,4.28.61,8.63,4.22,11,6.54A13.23,13.23,0,0,1,88.14,46c3.78-.94,9.57,1.74,13.4,3.89-1.43-4.19-2.89-9.87-1.29-12.26,1.44-2.16,6.33-3.73,10.21-4.67-3.12-1.64-6.79-4.36-7.44-8.25-.62-3.74,3.07-11.33,6-16.58C104.57,10.82,98.44,14,94.5,14c-5.35,0-7.33-4.86-8.07-8.52C84.27,8,80.77,11,76.5,11c-3.4,0-6.68-2.29-8.79-4.16A9.42,9.42,0,0,1,66,10.33,10.36,10.36,0,0,1,58.67,14a26.44,26.44,0,0,1-10-1.34c1.79,3.06,3.47,7.49,2.29,12.21C50.2,27.89,46.28,30.61,42.14,32.84Z"/><path class="cls-1" d="M79.52,74.89a1.5,1.5,0,0,1-1.47-1.19l-2-9.79A1.5,1.5,0,1,1,79,63.3l2,9.79a1.49,1.49,0,0,1-1.16,1.77Z"/><path class="cls-1" d="M69.5,86A1.5,1.5,0,0,1,68,84.56l-1-25a1.5,1.5,0,1,1,3-.12l1,25A1.51,1.51,0,0,1,69.56,86Z"/><path class="cls-1" d="M38.5,26a1.39,1.39,0,0,1-.44-.07l-23-7a1.5,1.5,0,1,1,.88-2.87l23,7A1.5,1.5,0,0,1,38.5,26Z"/><path class="cls-1" d="M38.5,17a1.47,1.47,0,0,1-.83-.25l-9-6a1.5,1.5,0,0,1,1.66-2.5l9,6a1.5,1.5,0,0,1,.42,2.08A1.52,1.52,0,0,1,38.5,17Z"/><path class="cls-3" d="M92.75,80.65a1.54,1.54,0,0,1-.52-.09,1.52,1.52,0,0,1-1-1.24l-.56-5.12-4.54-2.43a1.5,1.5,0,0,1,.09-2.69l5.41-2.45a1.5,1.5,0,1,1,1.24,2.74l-2.64,1.19,2.55,1.37a1.48,1.48,0,0,1,.78,1.16L93.9,76,96,74a1.51,1.51,0,0,1,1.34-.39l2.84.59-1.26-2.61a1.46,1.46,0,0,1,0-1.39l1.43-2.52L97.52,68a1.49,1.49,0,0,1-1.31-.47l-4-4.39a1.5,1.5,0,1,1,2.22-2L97.89,65l5.1-.69a1.49,1.49,0,0,1,1.51,2.22L102,71l2.24,4.63a1.49,1.49,0,0,1-.16,1.57,1.51,1.51,0,0,1-1.49.55l-5-1-3.72,3.56A1.44,1.44,0,0,1,92.75,80.65Z"/><polygon class="cls-1" points="84.5 86 85.89 88.81 88.99 89.26 86.75 91.45 87.28 94.54 84.5 93.08 81.72 94.54 82.25 91.45 80.01 89.26 83.11 88.81 84.5 86"/><path class="cls-4" d="M67,32.05s1.65-8.2,1.65-8.2h2.5L68.3,35.94H66.05l-2.22-8s-2.27,8-2.27,8H59.31L56.49,23.85H59L60.6,32s2.23-8.19,2.23-8.19h2Z"/><path class="cls-4" d="M81.34,31a5.08,5.08,0,0,1-1.4,3.68,5.31,5.31,0,0,1-7.29,0A5.1,5.1,0,0,1,71.26,31V28.81a5.1,5.1,0,0,1,1.39-3.68,4.76,4.76,0,0,1,3.62-1.45,4.87,4.87,0,0,1,3.66,1.45,5.08,5.08,0,0,1,1.41,3.68Zm-2.41-2.19a3.69,3.69,0,0,0-.71-2.32,2.34,2.34,0,0,0-2-.9,2.25,2.25,0,0,0-1.91.9,3.74,3.74,0,0,0-.69,2.32V31a3.74,3.74,0,0,0,.69,2.34,2.3,2.3,0,0,0,1.93.91,2.33,2.33,0,0,0,1.94-.91,3.74,3.74,0,0,0,.7-2.34Z"/><path class="cls-4" d="M92,32.05s1.65-8.2,1.65-8.2h2.5L93.28,35.94H91L88.8,28s-2.26,8-2.26,8H84.29L81.46,23.85H84L85.57,32c.05,0,2.23-8.19,2.23-8.19h2Z"/></g></g></svg>