<svg xmlns="http://www.w3.org/2000/svg" viewBox="0 0 97 99"><defs><style>.cls-1{fill:#263357;}.cls-2{fill:#61c4f2;fill-rule:evenodd;}</style></defs><g id="Слой_2" data-name="Слой 2"><g id="icons"><rect class="cls-1" y="21" width="5" height="78"/><rect class="cls-1" x="36.5" y="57.5" width="5" height="78" transform="translate(135.5 57.5) rotate(90)"/><rect class="cls-1" x="92" width="5" height="78" transform="translate(189 78) rotate(180)"/><rect class="cls-1" x="55.5" y="-36.5" width="5" height="78" transform="translate(55.5 60.5) rotate(-90)"/><path class="cls-2" d="M62.64,70.34h-25a3.61,3.61,0,0,1-3.57-3.64V37.6H66.21V66.7A3.61,3.61,0,0,1,62.64,70.34ZM46.57,44.87a1.79,1.79,0,1,0-3.57,0V61.24a1.79,1.79,0,1,0,3.57,0Zm10.72,0a1.79,1.79,0,1,0-3.58,0V61.24a1.79,1.79,0,1,0,3.58,0ZM68,35.78H32.29V32.14H43V29.41a2.7,2.7,0,0,1,2.68-2.72h8.93a2.71,2.71,0,0,1,2.68,2.72v2.73H68ZM46.57,32.14h7.14V30.32H46.57Z"/></g></g></svg>