<svg xmlns="http://www.w3.org/2000/svg" viewBox="0 0 118.41 101.79"><defs><style>.cls-1{fill:#f86464;}.cls-2{fill:#61c4f2;}.cls-3{fill:#263357;}</style></defs><g id="Слой_2" data-name="Слой 2"><g id="icons"><path class="cls-1" d="M7.41,61h-5V10a5,5,0,0,1,5-5Z"/><path class="cls-1" d="M110.41,36h5V10a5,5,0,0,0-5-5Z"/><path class="cls-2" d="M44.91,17h-23a1.5,1.5,0,1,1,0-3h23a1.5,1.5,0,0,1,0,3Z"/><path class="cls-2" d="M44.91,39h-23a1.5,1.5,0,1,1,0-3h23a1.5,1.5,0,0,1,0,3Z"/><path class="cls-2" d="M37.91,28h-16a1.5,1.5,0,1,1,0-3h16a1.5,1.5,0,0,1,0,3Z"/><path class="cls-3" d="M7.91,61a1.5,1.5,0,0,1-1.5-1.5V4a4,4,0,0,1,4-4h41a9,9,0,0,1,9,9V43.5a1.5,1.5,0,0,1-3,0V9a6,6,0,0,0-6-6h-41a1,1,0,0,0-1,1V59.5A1.5,1.5,0,0,1,7.91,61Z"/><path class="cls-3" d="M109.91,36a1.5,1.5,0,0,1-1.5-1.5V4a1,1,0,0,0-1-1h-41a6,6,0,0,0-6,6,1.5,1.5,0,1,1-3,0,9,9,0,0,1,9-9h41a4,4,0,0,1,4,4V34.5A1.5,1.5,0,0,1,109.91,36Z"/><path class="cls-2" d="M37.22,73.32,11.57,68A5.37,5.37,0,0,0,1,69.45l0,.47a4.65,4.65,0,0,0,3.2,4.6,4.51,4.51,0,0,0,1.7.2,3.05,3.05,0,0,0,.52,0A5.31,5.31,0,0,0,9.9,73.42L33.7,83Z"/><path class="cls-3" d="M96.43,101.79c-2.7,0-5.73-.07-8.52-.29a1,1,0,0,1-.24,0L45.42,91.38a1.5,1.5,0,0,1-1-.79l-1.57-3.18a5.54,5.54,0,0,0-1.5,1.67,9.42,9.42,0,0,0-.9,6.75,1.51,1.51,0,0,1-.73,1.76c-1.78.94-5.4,0-7.4-.63s-5.47-2-6.41-3.73a1.51,1.51,0,0,1,.37-1.87l.79-.64c1.91-1.52,3.55-2.83,4.51-5.61l.92-2.91a1.5,1.5,0,0,1,2.86.91l-.93,2.94a13.82,13.82,0,0,1-4.89,6.54A24.14,24.14,0,0,0,37.23,95a13,13,0,0,1,1.48-7.34,9.59,9.59,0,0,1,4.12-3.75,1.5,1.5,0,0,1,2,.69l2,4,41.45,9.9c4,.31,8.65.29,11.9.22-1.6-1.17-3.63-2.62-5.79-4A1.5,1.5,0,0,1,96,92.21c5,3.22,9.18,6.58,9.36,6.72a1.51,1.51,0,0,1,.49,1.63,1.49,1.49,0,0,1-1.35,1C104.26,101.61,100.78,101.79,96.43,101.79Z"/><path class="cls-3" d="M58.44,80A1.58,1.58,0,0,1,58,80l-8.24-2.4-3.42,1.82A1.51,1.51,0,0,1,44.51,79c-.14-.17-1.45-1.8-1.48-5.45a12,12,0,0,1,3.18-7.78,20.72,20.72,0,0,0-6.81-2.44,20.39,20.39,0,0,1-.26,8.85l-1,3a1.5,1.5,0,1,1-2.86-.91l.94-2.94a17.16,17.16,0,0,0-.15-8.89,1.49,1.49,0,0,1,.73-1.75c1.78-.95,5.12,0,6.95.65,1.45.51,4.91,1.9,5.88,3.72A1.51,1.51,0,0,1,49.3,67,9.09,9.09,0,0,0,46,73.57,9.34,9.34,0,0,0,46.34,76l2.56-1.37A1.53,1.53,0,0,1,50,74.52l8.83,2.57A1.5,1.5,0,0,1,58.44,80Z"/><path class="cls-3" d="M33.93,84.16a1.71,1.71,0,0,1-.54-.1L8.83,74.64A1.5,1.5,0,0,1,9.9,71.83L33,80.71l2.3-6.42a1.5,1.5,0,1,1,2.82,1l-2.82,7.86a1.5,1.5,0,0,1-.78.86A1.52,1.52,0,0,1,33.93,84.16Z"/><path class="cls-3" d="M23.7,83.14a1.47,1.47,0,0,1-.93-.33,1.51,1.51,0,0,1-.24-2.11l8-10a1.5,1.5,0,1,1,2.34,1.88l-8,10A1.48,1.48,0,0,1,23.7,83.14Z"/><path class="cls-3" d="M17.64,81.29A1.52,1.52,0,0,1,16.7,81a1.5,1.5,0,0,1-.23-2.11l8-10a1.5,1.5,0,1,1,2.34,1.88l-8,10A1.5,1.5,0,0,1,17.64,81.29Z"/><path class="cls-3" d="M11.57,79.44a1.46,1.46,0,0,1-.94-.33A1.51,1.51,0,0,1,10.4,77l8-10a1.5,1.5,0,1,1,2.34,1.88l-8,10A1.5,1.5,0,0,1,11.57,79.44Z"/><path class="cls-3" d="M5.89,75.76a5.68,5.68,0,0,1-1.71-.26A5.89,5.89,0,0,1,7.61,64.22a1.5,1.5,0,1,1-.87,2.87,2.9,2.9,0,1,0,1.93,3.62,1.5,1.5,0,0,1,2.87.87A5.92,5.92,0,0,1,5.89,75.76Z"/><polygon class="cls-1" points="104.19 45.06 94.45 66.81 82.44 54.8 104.19 45.06"/><path class="cls-3" d="M87.91,91a30.5,30.5,0,1,1,30.5-30.5A30.53,30.53,0,0,1,87.91,91Zm0-58a27.5,27.5,0,1,0,27.5,27.5A27.54,27.54,0,0,0,87.91,33Z"/><circle class="cls-3" cx="88.41" cy="61" r="3"/><path class="cls-3" d="M72.26,78.49a1.47,1.47,0,0,1-1.06-.44,1.5,1.5,0,0,1-.31-1.69L81.07,54.17a1.54,1.54,0,0,1,.75-.74l21.75-9.74a1.52,1.52,0,0,1,1.68.31,1.5,1.5,0,0,1,.31,1.67L95.82,67.42a1.52,1.52,0,0,1-.75.75L72.88,78.35A1.51,1.51,0,0,1,72.26,78.49ZM83.57,55.94l-8.26,18,18-8.26L101.21,48Z"/><path class="cls-3" d="M93.91,33a1.5,1.5,0,0,1-1.5-1.5V29.42A2.42,2.42,0,0,0,90,27H85.83a2.42,2.42,0,0,0-2.42,2.42V31.5a1.5,1.5,0,0,1-3,0V29.42A5.42,5.42,0,0,1,85.83,24H90a5.42,5.42,0,0,1,5.42,5.42V31.5A1.5,1.5,0,0,1,93.91,33Z"/><path class="cls-3" d="M93.88,27.5a1.52,1.52,0,0,1-1-.43,1.5,1.5,0,0,1,0-2.13,6.4,6.4,0,0,0,1.86-4.54,6.46,6.46,0,0,0-12.92,0,6.32,6.32,0,0,0,.15,1.37A1.5,1.5,0,0,1,79,22.4a9.64,9.64,0,0,1-.21-2A9.46,9.46,0,1,1,95,27.05,1.48,1.48,0,0,1,93.88,27.5Z"/><path class="cls-2" d="M69.54,71.15a1.51,1.51,0,0,1-1.36-.85,22.21,22.21,0,0,1,28.63-30A1.5,1.5,0,0,1,95.65,43,19.21,19.21,0,0,0,70.89,69a1.49,1.49,0,0,1-.71,2A1.43,1.43,0,0,1,69.54,71.15Z"/><path class="cls-2" d="M88.22,82.93a22,22,0,0,1-9-1.89,1.5,1.5,0,0,1,1.21-2.75A19.2,19.2,0,0,0,106.19,54,1.5,1.5,0,0,1,109,52.91a22.21,22.21,0,0,1-20.78,30Z"/></g></g></svg>